<svg xmlns="http://www.w3.org/2000/svg" width="46" height="47" viewBox="0 0 46 47">
  <metadata><?xpacket begin="﻿" id="W5M0MpCehiHzreSzNTczkc9d"?>
<x:xmpmeta xmlns:x="adobe:ns:meta/" x:xmptk="Adobe XMP Core 5.6-c142 79.160924, 2017/07/13-01:06:39        ">
   <rdf:RDF xmlns:rdf="http://www.w3.org/1999/02/22-rdf-syntax-ns#">
      <rdf:Description rdf:about=""/>
   </rdf:RDF>
</x:xmpmeta>
                                                                                                    
                                                                                                    
                                                                                                    
                                                                                                    
                                                                                                    
                                                                                                    
                                                                                                    
                                                                                                    
                                                                                                    
                                                                                                    
                                                                                                    
                                                                                                    
                                                                                                    
                                                                                                    
                                                                                                    
                                                                                                    
                                                                                                    
                                                                                                    
                                                                                                    
                                                                                                    
                           
<?xpacket end="w"?></metadata>
<defs>
    <style>
      .cls-1 {
        fill: #4b64ff;
        fill-rule: evenodd;
      }
    </style>
  </defs>
  <path id="address" class="cls-1" d="M1323.31,1037.98a12.305,12.305,0,0,0-24.61,0,12.074,12.074,0,0,0,2.66,7.61c2.17,2.74,8.47,9.21,8.73,9.49l0.92,0.93,0.91-.93c0.26-.28,6.56-6.75,8.74-9.49A12.123,12.123,0,0,0,1323.31,1037.98Zm-12.3,14.39c-1.86-1.93-6.05-6.32-7.66-8.35a9.592,9.592,0,0,1-2.11-6.04,9.765,9.765,0,0,1,19.53,0,9.614,9.614,0,0,1-2.1,6.03C1317.05,1046.05,1312.86,1050.44,1311.01,1052.37Zm0-21.98a7.465,7.465,0,1,0,7.47,7.46A7.471,7.471,0,0,0,1311.01,1030.39Zm0,12.39a4.93,4.93,0,1,1,4.93-4.93A4.936,4.936,0,0,1,1311.01,1042.78Zm14.86-22.56v-5.59h-2.54v3.67l-12.32-9.31L1288,1026.38l1.53,2.03,1.89-1.43v24.69h10.94v-2.54h-8.4v-24.07l17.05-12.89,17.04,12.89v24.07h-8.4v2.54h10.94v-24.69l1.89,1.43,1.53-2.03Z" transform="translate(-1288 -1009)"/>
</svg>
