<svg xmlns="http://www.w3.org/2000/svg" width="16.91" height="17" viewBox="0 0 16.91 17">
  <metadata><?xpacket begin="﻿" id="W5M0MpCehiHzreSzNTczkc9d"?>
<x:xmpmeta xmlns:x="adobe:ns:meta/" x:xmptk="Adobe XMP Core 5.6-c142 79.160924, 2017/07/13-01:06:39        ">
   <rdf:RDF xmlns:rdf="http://www.w3.org/1999/02/22-rdf-syntax-ns#">
      <rdf:Description rdf:about=""/>
   </rdf:RDF>
</x:xmpmeta>
                                                                                                    
                                                                                                    
                                                                                                    
                                                                                                    
                                                                                                    
                                                                                                    
                                                                                                    
                                                                                                    
                                                                                                    
                                                                                                    
                                                                                                    
                                                                                                    
                                                                                                    
                                                                                                    
                                                                                                    
                                                                                                    
                                                                                                    
                                                                                                    
                                                                                                    
                                                                                                    
                           
<?xpacket end="w"?></metadata>
<defs>
    <style>
      .cls-1 {
        fill: #d5d5d5;
        fill-rule: evenodd;
      }
    </style>
  </defs>
  <path id="bag" class="cls-1" d="M1255.02,2466.45a0.582,0.582,0,0,0-.58-0.5h-3.35v-1.37a2.56,2.56,0,1,0-5.12,0v1.37h-3.34a0.593,0.593,0,0,0-.59.5l-1.95,11.86a0.59,0.59,0,0,0,.59.69h15.72a0.589,0.589,0,0,0,.6-0.6,1.079,1.079,0,0,0-.03-0.19Zm-7.86-1.87a1.37,1.37,0,1,1,2.74,0v1.37h-2.74v-1.37Zm-5.79,13.23,1.76-10.66h2.84v3.36a0.6,0.6,0,1,0,1.19,0v-3.36h2.74v3.36a0.6,0.6,0,1,0,1.19,0v-3.36h2.84l1.76,10.66h-14.32Z" transform="translate(-1240.09 -2462)"/>
</svg>
