<svg xmlns="http://www.w3.org/2000/svg" width="21" height="21" viewBox="0 0 21 21">
  <metadata><?xpacket begin="﻿" id="W5M0MpCehiHzreSzNTczkc9d"?>
<x:xmpmeta xmlns:x="adobe:ns:meta/" x:xmptk="Adobe XMP Core 5.6-c142 79.160924, 2017/07/13-01:06:39        ">
   <rdf:RDF xmlns:rdf="http://www.w3.org/1999/02/22-rdf-syntax-ns#">
      <rdf:Description rdf:about=""/>
   </rdf:RDF>
</x:xmpmeta>
                                                                                                    
                                                                                                    
                                                                                                    
                                                                                                    
                                                                                                    
                                                                                                    
                                                                                                    
                                                                                                    
                                                                                                    
                                                                                                    
                                                                                                    
                                                                                                    
                                                                                                    
                                                                                                    
                                                                                                    
                                                                                                    
                                                                                                    
                                                                                                    
                                                                                                    
                                                                                                    
                           
<?xpacket end="w"?></metadata>
<defs>
    <style>
      .cls-1 {
        fill-rule: evenodd;
      }
    </style>
  </defs>
  <path id="bag" class="cls-1" d="M1332.64,64.5a0.735,0.735,0,0,0-.73-0.615h-4.15v-1.7a3.18,3.18,0,1,0-6.36,0v1.7h-4.15a0.717,0.717,0,0,0-.72.615l-2.42,14.651a0.712,0.712,0,0,0,.16.6,0.761,0.761,0,0,0,.56.253h19.52a0.73,0.73,0,0,0,.74-0.742,1.545,1.545,0,0,0-.03-0.236Zm-9.75-2.315a1.7,1.7,0,1,1,3.39,0v1.7h-3.39v-1.7Zm-7.19,16.352,2.18-13.169h3.52v4.142a0.745,0.745,0,0,0,1.49,0V65.366h3.39v4.142a0.74,0.74,0,1,0,1.48,0V65.366h3.52l2.19,13.169H1315.7Z" transform="translate(-1314.09 -59)"/>
</svg>
