<svg xmlns="http://www.w3.org/2000/svg" width="107.25" height="22" viewBox="0 0 107.25 22">
  <metadata><?xpacket begin="﻿" id="W5M0MpCehiHzreSzNTczkc9d"?>
<x:xmpmeta xmlns:x="adobe:ns:meta/" x:xmptk="Adobe XMP Core 5.6-c142 79.160924, 2017/07/13-01:06:39        ">
   <rdf:RDF xmlns:rdf="http://www.w3.org/1999/02/22-rdf-syntax-ns#">
      <rdf:Description rdf:about=""/>
   </rdf:RDF>
</x:xmpmeta>
                                                                                                    
                                                                                                    
                                                                                                    
                                                                                                    
                                                                                                    
                                                                                                    
                                                                                                    
                                                                                                    
                                                                                                    
                                                                                                    
                                                                                                    
                                                                                                    
                                                                                                    
                                                                                                    
                                                                                                    
                                                                                                    
                                                                                                    
                                                                                                    
                                                                                                    
                                                                                                    
                           
<?xpacket end="w"?></metadata>
<defs>
    <style>
      .cls-1 {
        fill: #4b64ff;
        fill-rule: evenodd;
      }
    </style>
  </defs>
  <path id="ber" class="cls-1" d="M905.934,3712.99c1.433-1.66,2.819-3.26,4.2-4.87,0.834-.97,1.663-1.94,2.5-2.9a0.273,0.273,0,0,1,.229-0.13c0.889,0.01,1.778.01,2.716,0.01-0.34.4-.656,0.77-0.972,1.14-1.285,1.5-2.57,3.01-3.859,4.51a0.184,0.184,0,0,0-.017.25c0.518,0.92,1.033,1.83,1.55,2.74,0.613,1.09,1.228,2.17,1.841,3.25,0.653,1.15,1.3,2.31,1.961,3.46,0.12,0.21.067,0.23-.158,0.23q-1.131-.015-2.263,0a0.269,0.269,0,0,1-.276-0.16c-1.393-2.5-2.793-5.01-4.191-7.51-0.047-.08-0.091-0.17-0.145-0.27a10.7,10.7,0,0,0-.919.94c-0.712.75-1.413,1.51-2.125,2.26a0.331,0.331,0,0,0-.069.27c0,1.4,0,2.81,0,4.22,0,0.19-.039.26-0.261,0.25q-0.925-.015-1.852,0c-0.172,0-.211-0.05-0.21-0.2q0.006-10.635,0-21.27c0-.15.042-0.2,0.212-0.19,0.617,0.01,1.235.01,1.852-.01,0.224,0,.26.07,0.26,0.26q-0.009,6.675,0,13.34v0.38Zm-17.695-5.77c0.315-.28.578-0.51,0.846-0.74a6.5,6.5,0,0,1,2.451-1.42,6.012,6.012,0,0,1,4.277.27,3.743,3.743,0,0,1,2.044,2.39,4.185,4.185,0,0,1,.207,1.31q0,5.685,0,11.38c0,0.21-.048.28-0.289,0.27-0.591-.01-1.183-0.02-1.774,0-0.222.01-.262-0.05-0.262-0.25,0.006-3.81.019-7.61,0-11.42a2.138,2.138,0,0,0-1.376-2.12,3.743,3.743,0,0,0-1.964-.19,7.292,7.292,0,0,0-3.625,1.83,1.461,1.461,0,0,0-.548,1.27c0.024,3.54.011,7.08,0.017,10.63,0,0.19-.035.26-0.259,0.25q-0.9-.015-1.8,0c-0.216.01-.266-0.05-0.265-0.25q0.009-10.215,0-20.44c0-.26.008-0.52,0-0.77-0.007-.15.028-0.21,0.207-0.2q0.939,0.015,1.877,0c0.194-.01.239,0.04,0.239,0.22q-0.011,3.825,0,7.66v0.32Zm-11.874,13.77a9.041,9.041,0,0,1-4.669-1.1,7.45,7.45,0,0,1-2.049-1.74c-0.088-.1-0.062-0.16.045-0.23,0.524-.36,1.045-0.72,1.558-1.09,0.124-.09.159-0.04,0.233,0.05a6.391,6.391,0,0,0,1.805,1.56,6.094,6.094,0,0,0,3.594.65,3.634,3.634,0,0,0,1.926-.69,2.092,2.092,0,0,0,.785-2.62,2.634,2.634,0,0,0-1.161-1.14,13.8,13.8,0,0,0-2.661-.99c-1.06-.36-2.159-0.63-3.193-1.04a3.531,3.531,0,0,1-2.5-3.18,4.119,4.119,0,0,1,.565-2.47,3.641,3.641,0,0,1,1.073-1.14,6.32,6.32,0,0,1,3.4-1.01,8.1,8.1,0,0,1,4.051.94,7.069,7.069,0,0,1,1.855,1.41c0.09,0.09.166,0.2,0.253,0.3,0.078,0.08,0,.13-0.054.17-0.449.37-.906,0.72-1.347,1.1-0.123.1-.171,0.09-0.289-0.02a9.5,9.5,0,0,0-1.391-1.2,5.249,5.249,0,0,0-3.415-.82,2.349,2.349,0,0,0-2.174,1.23,1.782,1.782,0,0,0,.552,2.38,6.658,6.658,0,0,0,2.1.94c1.2,0.39,2.38.8,3.584,1.16a4.73,4.73,0,0,1,2.368,1.5,3.839,3.839,0,0,1,.866,2.85,3.986,3.986,0,0,1-.678,2.02,4.844,4.844,0,0,1-1.853,1.54A7.106,7.106,0,0,1,876.365,3720.99Zm-13.7-12.79c0.16-.24.307-0.46,0.464-0.69a7.018,7.018,0,0,1,1.6-1.69,5.234,5.234,0,0,1,2.516-.91,4.57,4.57,0,0,1,.74-0.06c0.114,0.01.143,0.04,0.142,0.14,0,0.63,0,1.26,0,1.9,0,0.1-.034.12-0.144,0.13a7.515,7.515,0,0,0-1.057.14,4.552,4.552,0,0,0-2.466,1.48,10.352,10.352,0,0,0-1.823,3.42,0.7,0.7,0,0,0-.017.23c0,2.71,0,5.43,0,8.14,0,0.19-.033.26-0.259,0.25-0.617-.02-1.235-0.01-1.852,0-0.167,0-.213-0.04-0.213-0.2q0.008-7.59,0-15.19c0-.16.04-0.2,0.209-0.2q0.951,0.015,1.9,0c0.167,0,.211.04,0.21,0.2-0.009.88,0,1.77,0,2.66A0.323,0.323,0,0,0,862.666,3708.2Zm-23.153,5.43a5.3,5.3,0,0,0-2.262-3.3,5.222,5.222,0,0,0-1.945-.87,0.116,0.116,0,0,1-.116-0.07c-0.006-.07.068-0.06,0.112-0.08a9.179,9.179,0,0,0,1.113-.47,4.651,4.651,0,0,0,2.646-4.59,5.021,5.021,0,0,0-3.26-4.61,8.3,8.3,0,0,0-3.49-.62c-2.675-.01-5.349,0-8.024-0.01-0.229,0-.282.06-0.281,0.27q0.011,5.295,0,10.58h0v10.47c0,0.37,0,.37.408,0.37q3.524,0,7.047-.01a14.792,14.792,0,0,0,2.574-.19,8.635,8.635,0,0,0,3.392-1.18,4.558,4.558,0,0,0,1.839-2.23A6.086,6.086,0,0,0,839.513,3713.63Zm-12.922-8.94c0-1.13,0-2.27,0-3.4,0-.17.029-0.23,0.233-0.23,1.791,0.01,3.583-.01,5.375.01a6.667,6.667,0,0,1,2.253.37,2.85,2.85,0,0,1,1.9,2.08,3.876,3.876,0,0,1-.01,2.12,3.43,3.43,0,0,1-1.779,1.98,6.613,6.613,0,0,1-3.222.71c-1.5.01-3,0-4.5,0.01-0.2,0-.258-0.04-0.256-0.24C826.6,3706.97,826.591,3705.83,826.591,3704.69Zm10.157,11.71a3.339,3.339,0,0,1-1.975,1.74,8.2,8.2,0,0,1-2.87.5c-1.687.03-3.375,0-5.062,0.02-0.2,0-.256-0.05-0.255-0.24,0.01-1.3,0-2.61,0-3.91h0c0-1.31,0-2.62,0-3.93a0.168,0.168,0,0,1,.206-0.21c1.474,0.01,2.948-.02,4.421.02a8.185,8.185,0,0,1,3.207.6,4.54,4.54,0,0,1,2.224,1.9,3.853,3.853,0,0,1,.43,2.03A3.741,3.741,0,0,1,836.748,3716.4Zm94.485,4.07a14.126,14.126,0,0,1-.35-3.35c0-2.66,0-5.33,0-7.99a3.748,3.748,0,0,0-.591-2,4.95,4.95,0,0,0-3.5-2.18,9.246,9.246,0,0,0-3.061-.05,6.465,6.465,0,0,0-4.813,3.07c-0.058.1-.1,0.14,0.049,0.21,0.573,0.26,1.14.54,1.7,0.82,0.162,0.08.218,0.06,0.293-.1a3.527,3.527,0,0,1,1.794-1.78,5.922,5.922,0,0,1,3.851-.28,2.342,2.342,0,0,1,1.865,1.76,8.334,8.334,0,0,1,.1,1.67c0.006,0.12-.073.1-0.146,0.12-0.426.07-.853,0.14-1.278,0.23a22.944,22.944,0,0,0-5.988,1.83,5.216,5.216,0,0,0-2.056,1.71,4.616,4.616,0,0,0-.7,3.21,3.824,3.824,0,0,0,1.7,2.8,4.754,4.754,0,0,0,2.448.8,7.621,7.621,0,0,0,3.037-.39,7.779,7.779,0,0,0,2.842-1.83,0.339,0.339,0,0,1,.233-0.16c0.078,0.65.153,1.29,0.233,1.93,0.01,0.07-.034.18,0.128,0.18,0.745-.01,1.489,0,2.243,0C931.251,3720.61,931.249,3720.54,931.233,3720.47Zm-2.665-6.04v1.97a0.321,0.321,0,0,1-.083.26,8.816,8.816,0,0,1-3.554,2.23,3.7,3.7,0,0,1-2.133.17,2.674,2.674,0,0,1-1.98-1.55,2.22,2.22,0,0,1,.3-2.17,5.694,5.694,0,0,1,2.7-1.84,21.117,21.117,0,0,1,4.581-1.19c0.172-.03.179,0.03,0.179,0.15C928.565,3713.12,928.568,3713.78,928.568,3714.43Zm-71.739,2.86-1.027-.48a1.265,1.265,0,0,0-.609-0.25,1.171,1.171,0,0,0-.395.5,5.057,5.057,0,0,1-4.92,2.03,4.372,4.372,0,0,1-3.057-1.83,6.154,6.154,0,0,1-1.232-3.74c-0.005-.19.058-0.22,0.24-0.22,1.723,0.01,3.446,0,5.169,0h2.6c0.874,0,1.748,0,2.623.01,0.2,0,.238-0.05.234-0.22-0.013-.55.011-1.09-0.008-1.64a7.906,7.906,0,0,0-.928-3.75,5.485,5.485,0,0,0-2.851-2.46,7.478,7.478,0,0,0-3.187-.41,6.024,6.024,0,0,0-3.779,1.55,6.794,6.794,0,0,0-1.958,3.14,10.66,10.66,0,0,0-.448,2.84,12.119,12.119,0,0,0,.246,3.07,7.154,7.154,0,0,0,1.964,3.63,6.573,6.573,0,0,0,2.628,1.59,8.85,8.85,0,0,0,4,.22,6.015,6.015,0,0,0,2.79-1.11,8.277,8.277,0,0,0,2-2.28C856.994,3717.35,856.913,3717.33,856.829,3717.29Zm-11.153-6.05a5.889,5.889,0,0,1,1.1-3.05,3.677,3.677,0,0,1,2.6-1.47,5.247,5.247,0,0,1,1.975.1,3.315,3.315,0,0,1,1.553.96,4.68,4.68,0,0,1,1.205,3.02c0.012,0.15.011,0.3,0.032,0.45,0.023,0.17-.05.21-0.226,0.21-1.336-.01-2.672-0.01-4.008-0.01s-2.672,0-4.008.01C845.707,3711.46,845.658,3711.4,845.676,3711.24Z" transform="translate(-824 -3699)"/>
</svg>
