<svg xmlns="http://www.w3.org/2000/svg" width="25" height="22" viewBox="0 0 25 22">
  <metadata><?xpacket begin="﻿" id="W5M0MpCehiHzreSzNTczkc9d"?>
<x:xmpmeta xmlns:x="adobe:ns:meta/" x:xmptk="Adobe XMP Core 5.6-c142 79.160924, 2017/07/13-01:06:39        ">
   <rdf:RDF xmlns:rdf="http://www.w3.org/1999/02/22-rdf-syntax-ns#">
      <rdf:Description rdf:about=""/>
   </rdf:RDF>
</x:xmpmeta>
                                                                                                    
                                                                                                    
                                                                                                    
                                                                                                    
                                                                                                    
                                                                                                    
                                                                                                    
                                                                                                    
                                                                                                    
                                                                                                    
                                                                                                    
                                                                                                    
                                                                                                    
                                                                                                    
                                                                                                    
                                                                                                    
                                                                                                    
                                                                                                    
                                                                                                    
                                                                                                    
                           
<?xpacket end="w"?></metadata>
<defs>
    <style>
      .cls-1 {
        fill: #4b64ff;
        fill-rule: evenodd;
      }
    </style>
  </defs>
  <path class="cls-1" d="M1286.69,1937a0.591,0.591,0,0,0-.43.19l-5.94,6.5a0.559,0.559,0,0,0,.04.77l3.33,3.02a0.61,0.61,0,0,0,.84-0.08l1.35-1.8v12.85a0.58,0.58,0,0,0,.57.55h12.47a0.58,0.58,0,0,0,.57-0.55V1945.6l1.35,1.8a0.622,0.622,0,0,0,.85.08l3.33-3.02a0.559,0.559,0,0,0,.03-0.77l-5.94-6.5a0.591,0.591,0,0,0-.43-0.19h-11.99Zm0.26,1.1h2.49v0.07a3.247,3.247,0,0,0,6.49,0v-0.07h2.49l5.41,5.92-2.45,2.24-2-2.67a0.586,0.586,0,0,0-.63-0.2,0.577,0.577,0,0,0-.4.53v3.37h-11.33v-3.37a0.582,0.582,0,0,0-.39-0.53,0.6,0.6,0,0,0-.64.2l-2,2.67-2.45-2.24Zm3.63,0h4.21v0.07a2.106,2.106,0,0,1-4.21,0v-0.07Zm-3.56,10.29h11.33v1.31h-11.33v-1.31Zm0,2.41h11.33v7.1h-11.33v-7.1Z" transform="translate(-1280.19 -1937)"/>
</svg>
