<svg xmlns="http://www.w3.org/2000/svg" width="200" height="31" viewBox="0 0 200 31">
  <metadata><?xpacket begin="﻿" id="W5M0MpCehiHzreSzNTczkc9d"?>
<x:xmpmeta xmlns:x="adobe:ns:meta/" x:xmptk="Adobe XMP Core 5.6-c142 79.160924, 2017/07/13-01:06:39        ">
   <rdf:RDF xmlns:rdf="http://www.w3.org/1999/02/22-rdf-syntax-ns#">
      <rdf:Description rdf:about=""/>
   </rdf:RDF>
</x:xmpmeta>
                                                                                                    
                                                                                                    
                                                                                                    
                                                                                                    
                                                                                                    
                                                                                                    
                                                                                                    
                                                                                                    
                                                                                                    
                                                                                                    
                                                                                                    
                                                                                                    
                                                                                                    
                                                                                                    
                                                                                                    
                                                                                                    
                                                                                                    
                                                                                                    
                                                                                                    
                                                                                                    
                           
<?xpacket end="w"?></metadata>
<defs>
    <style>
      .cls-b2{
        fill:black;
      }
    </style>
  </defs>
  <path id="gucci" class="cls-1" d="M693.956,7344.06H701a2.824,2.824,0,0,0-1.249,2.34v24.07a2.839,2.839,0,0,0,1.249,2.32h-7.044a2.847,2.847,0,0,0,1.229-2.32V7346.4a2.805,2.805,0,0,0-1.229-2.34h0ZM530.711,7354.4a18.335,18.335,0,0,0-4.546-6.65,12.745,12.745,0,0,0-8.1-3.04c-7.883,0-11.414,7.07-11.414,14.02,0,6.72,3.375,13.52,10.985,13.52a10.241,10.241,0,0,0,8.038-3.76v-5.42a3.713,3.713,0,0,0-1.639-3.29H532.1a4.739,4.739,0,0,0-1.385,3.29v5.42a19.571,19.571,0,0,1-13.365,5.5c-8.994,0-16.35-6.56-16.35-15.7,0-9.08,7.258-15.3,16.135-15.3a17.273,17.273,0,0,1,13.58,6.06v5.35h0Zm19.745-10.34h7.589a3.136,3.136,0,0,0-1.385,2.86v17.57c0,4.82,5.7,7.18,9.872,7.18,4.1,0,9.443-2.38,9.443-7.09v-17.66a3.8,3.8,0,0,0-1.092-2.86h4.136a3.711,3.711,0,0,0-1.151,2.86v17.66c0,6.35-7.551,8.79-12.78,8.79-5.384,0-13.247-2.36-13.247-8.88v-17.57a3.57,3.57,0,0,0-1.385-2.86h0Zm76.013,10.43a16.435,16.435,0,0,0-4.292-6.6,12.038,12.038,0,0,0-8-3.21c-7.8,0-11.8,6.77-11.8,13.8,0,7.07,4.156,13.75,11.863,13.75,5.736,0,9.833-4.01,12.233-8.83v5.23a18.5,18.5,0,0,1-13.209,5.29c-9.326,0-16.311-5.99-16.311-15.53,0-9.28,6.712-15.38,15.863-15.38a19.731,19.731,0,0,1,13.657,5.21v6.27h0Zm48.933,0a16.445,16.445,0,0,0-4.292-6.6,12.038,12.038,0,0,0-8-3.21c-7.805,0-11.785,6.77-11.785,13.8,0,7.07,4.137,13.75,11.844,13.75,5.736,0,9.852-4.01,12.233-8.83v5.23a18.472,18.472,0,0,1-13.209,5.29c-9.326,0-16.311-5.99-16.311-15.53,0-9.28,6.712-15.38,15.862-15.38a19.732,19.732,0,0,1,13.658,5.21v6.27h0Z" transform="translate(-501 -7343)"/>
</svg>
