<svg xmlns="http://www.w3.org/2000/svg" width="187" height="37.56" viewBox="0 0 187 37.56">
  <metadata><?xpacket begin="﻿" id="W5M0MpCehiHzreSzNTczkc9d"?>
<x:xmpmeta xmlns:x="adobe:ns:meta/" x:xmptk="Adobe XMP Core 5.6-c142 79.160924, 2017/07/13-01:06:39        ">
   <rdf:RDF xmlns:rdf="http://www.w3.org/1999/02/22-rdf-syntax-ns#">
      <rdf:Description rdf:about=""/>
   </rdf:RDF>
</x:xmpmeta>
                                                                                                    
                                                                                                    
                                                                                                    
                                                                                                    
                                                                                                    
                                                                                                    
                                                                                                    
                                                                                                    
                                                                                                    
                                                                                                    
                                                                                                    
                                                                                                    
                                                                                                    
                                                                                                    
                                                                                                    
                                                                                                    
                                                                                                    
                                                                                                    
                                                                                                    
                                                                                                    
                           
<?xpacket end="w"?></metadata>
<defs>
    <style>
      .cls-b4{
        fill:black;
      }
    </style>
  </defs>
  <path id="versace" class="cls-1" d="M1266.69,7340.27H1285v2.94a5.14,5.14,0,0,0-1.65-.27h-10.53v13.76h10.24a8.429,8.429,0,0,0,1.94-.22v2.93a8.518,8.518,0,0,0-1.89-.17h-10.29v14.23h10.22a8.4,8.4,0,0,0,1.96-.26v3.17h-18.28a7.086,7.086,0,0,0,.21-1.71v-32.66a5.243,5.243,0,0,0-.24-1.74h0Zm-4.24,9.37-5.29-.04c-0.26-3-1.97-5.91-5.71-6.44-8.04-.73-10.3,8.17-10.09,14.68,0.2,6.27,1.2,15.92,9.49,15.92,3.47,0,6.81-3.6,6.7-6.65l4.9-.04c-0.36,6.28-7.49,9.91-10.88,10.04-11.61.4-16.46-7.41-16.7-18.54-0.22-10.09,3.87-19.05,15.33-19.05,9.82,0.14,11.72,6,12.25,10.12h0Zm-82.52,22.64,3.51-2.96c1.82,3.04,3.32,4.43,6.95,4.43,3.68,0,6.78-2.26,6.78-6.25a5.8,5.8,0,0,0-2.36-4.79,36.612,36.612,0,0,0-5.35-2.9c-4.24-2.05-8.37-4.72-8.37-10.09,0-6.77,5.7-9.76,11.71-9.98,3.56-.13,7.98,1.85,9.76,4.08l-3.55,2.76a7.444,7.444,0,0,0-6.55-3.96c-4.54,0-8.14,5.31-4.38,8.97a23.2,23.2,0,0,0,5.88,3.47c4.75,2.24,8.8,4.93,8.8,10.86a10.929,10.929,0,0,1-1.59,5.71q-3.165,5.28-10.58,5.28c-5.67,0-6.79-1.3-10.66-4.63h0ZM1130,7340.27h18.3v2.94a5.14,5.14,0,0,0-1.65-.27h-10.53v13.76h10.24a8.429,8.429,0,0,0,1.94-.22v2.93a8.609,8.609,0,0,0-1.88-.17h-10.3v14.23h10.22a8.466,8.466,0,0,0,1.96-.26v3.17h-18.27a7.637,7.637,0,0,0,.2-1.71v-32.66a5.551,5.551,0,0,0-.23-1.74h0Zm-32,0h6.65v0.33a4.473,4.473,0,0,0,.26,1.21l9.38,28.5,9.63-28.63a4.722,4.722,0,0,0,.23-1.41h3.23a8.938,8.938,0,0,0-.72,1.54l-10.99,33.09a8.7,8.7,0,0,0-.29,1.48h-5.45a9.388,9.388,0,0,0-.37-1.48l-10.77-32.83c-0.12-.3-0.38-0.92-0.78-1.8H1098Zm70.67,18.82a9.113,9.113,0,0,0,7.7-9.05c0-6.32-5.23-9.77-11.1-9.77h-10.71a6.511,6.511,0,0,1,.23,1.73v32.64a5.6,5.6,0,0,1-.23,1.74h6.38a6.476,6.476,0,0,1-.23-1.74v-15l2.04,0.22,10.69,16.52h6.42l-11.19-17.29h0Zm-1.11-2.75a6.923,6.923,0,0,1-4.14,1.24h-2.73V7342.9h2.44a7.036,7.036,0,0,1,4.87,1.56,7.566,7.566,0,0,1,2.39,5.85,7,7,0,0,1-2.83,6.03h0Zm66.24,18.54-11.91-33.42a4.491,4.491,0,0,1-.24-1.19h-5.15a4.006,4.006,0,0,1-.23,1.33l-11.55,33.28a7.016,7.016,0,0,1-.72,1.5h3.32a4.427,4.427,0,0,1,.21-1.5l3.42-9.82h13.16l3.38,9.82a4.645,4.645,0,0,1,.26,1.5h6.9a7.79,7.79,0,0,1-.85-1.5h0Zm-21.95-12.47,5.56-16.31,5.72,16.31h-11.28Z" transform="translate(-1098 -7339.53)"/>
</svg>
