<svg xmlns="http://www.w3.org/2000/svg" width="187" height="30.03" viewBox="0 0 187 30.03">
  <metadata><?xpacket begin="﻿" id="W5M0MpCehiHzreSzNTczkc9d"?>
<x:xmpmeta xmlns:x="adobe:ns:meta/" x:xmptk="Adobe XMP Core 5.6-c142 79.160924, 2017/07/13-01:06:39        ">
   <rdf:RDF xmlns:rdf="http://www.w3.org/1999/02/22-rdf-syntax-ns#">
      <rdf:Description rdf:about=""/>
   </rdf:RDF>
</x:xmpmeta>
                                                                                                    
                                                                                                    
                                                                                                    
                                                                                                    
                                                                                                    
                                                                                                    
                                                                                                    
                                                                                                    
                                                                                                    
                                                                                                    
                                                                                                    
                                                                                                    
                                                                                                    
                                                                                                    
                                                                                                    
                                                                                                    
                                                                                                    
                                                                                                    
                                                                                                    
                                                                                                    
                           
<?xpacket end="w"?></metadata>
<defs>
    <style>
      .cls-b1 {
        fill-rule: evenodd;
      }
    </style>
  </defs>
  <path id="ck" class="cls-1" d="M228.055,7370.22c-6.546,0-12.133-5.9-12.133-12.35,0-6.42,5.47-12.44,12.086-12.44,4.349,0,7.481,2.09,10.03,5.37h3.2a14.447,14.447,0,0,0-3.553-4.54,15.634,15.634,0,0,0-9.632-3.44,15.005,15.005,0,1,0,9.351,26.71,18.76,18.76,0,0,0,3.951-4.82h-3.2c-2.525,3.28-5.752,5.51-10.1,5.51h0Zm33.2-15.7a10.11,10.11,0,0,0-8.136-4.21,10.98,10.98,0,1,0,0,21.96,9.749,9.749,0,0,0,8.136-4.16h0v3.67h2.642v-20.96h-2.642v3.7h0Zm-8.276,15.33a8.565,8.565,0,1,1,8.276-8.56,8.529,8.529,0,0,1-8.276,8.56h0Zm14.12,1.93h2.829v-28.36H267.1v28.36h0Zm13.513-3.32-7.154-17.64H270.65l8.58,20.96h2.852l8.556-20.96H287.88l-7.271,17.64h0Zm11.2,3.32h2.829v-20.96h-2.829v20.96h0Zm0-23.66h2.829v-4.7h-2.829v4.7h0Zm15.009,2.19c-2.665,0-4.559,1.4-6.312,3.26h0v-2.75h-2.618v20.96h2.781v-12.77h0a6.292,6.292,0,0,1,6.2-6.28c4.278,0,6.429,3.7,6.429,7.51h0v11.54h2.619v-11.54h0c0-5.44-3.2-9.93-9.094-9.93h0Zm35.347-6.89-12.858,16.27v-16.27h-2.782v28.36h2.782v-7.79l3.647-4.51,9.281,12.3h3.53l-11.034-14.54,11.034-13.82h-3.6Zm4.629,28.36h2.759v-28.36h-2.759v28.36h0Zm25.6-15.68a11.081,11.081,0,1,0-9.748,16.17,11.387,11.387,0,0,0,7.784-3.12,12.136,12.136,0,0,0,2.689-4.23h-2.969a8.277,8.277,0,0,1-15.8-2.63H373.77a12.284,12.284,0,0,0-1.379-6.19h0Zm-17.954,3.77c0.842-3.93,3.95-7.14,8.206-7.14a8.177,8.177,0,0,1,8.252,7.14H354.437Zm21.391,11.91h2.782v-20.96h-2.782v20.96h0Zm0-23.56h2.782v-4.8h-2.782v4.8h0Zm15.009,2.09c-2.713,0-4.606,1.4-6.383,3.26h0v-2.75h-2.665v20.96H384.6v-12.77h0a6.336,6.336,0,0,1,6.288-6.28c4.255,0,6.5,3.7,6.5,7.51h0v11.54H400v-11.54h0c0-5.44-3.25-9.93-9.164-9.93h0Z" transform="translate(-213 -7342.81)"/>
</svg>
