<svg xmlns="http://www.w3.org/2000/svg" width="25" height="25" viewBox="0 0 25 25">
  <metadata><?xpacket begin="﻿" id="W5M0MpCehiHzreSzNTczkc9d"?>
<x:xmpmeta xmlns:x="adobe:ns:meta/" x:xmptk="Adobe XMP Core 5.6-c142 79.160924, 2017/07/13-01:06:39        ">
   <rdf:RDF xmlns:rdf="http://www.w3.org/1999/02/22-rdf-syntax-ns#">
      <rdf:Description rdf:about=""/>
   </rdf:RDF>
</x:xmpmeta>
                                                                                                    
                                                                                                    
                                                                                                    
                                                                                                    
                                                                                                    
                                                                                                    
                                                                                                    
                                                                                                    
                                                                                                    
                                                                                                    
                                                                                                    
                                                                                                    
                                                                                                    
                                                                                                    
                                                                                                    
                                                                                                    
                                                                                                    
                                                                                                    
                                                                                                    
                                                                                                    
                           
<?xpacket end="w"?></metadata>
<defs>
    <style>
      .cls-1 {
        fill: #4b64ff;
        fill-rule: evenodd;
      }
    </style>
  </defs>
  <path class="cls-1" d="M1304.37,2503.75h-3.75a0.625,0.625,0,0,1,0-1.25h3.75A0.625,0.625,0,1,1,1304.37,2503.75Zm-8.75,0h-8.75a0.639,0.639,0,0,1-.62-0.63v-8.75a0.625,0.625,0,0,1,1.25,0v8.13h8.12A0.625,0.625,0,1,1,1295.62,2503.75Zm-8.75-13.75a0.639,0.639,0,0,1-.62-0.63v-3.75a0.625,0.625,0,0,1,1.25,0v3.75A0.64,0.64,0,0,1,1286.87,2490Zm11.25,20a0.639,0.639,0,0,1-.62-0.63V2492.5h-16.88a0.625,0.625,0,0,1,0-1.25h17.5a0.639,0.639,0,0,1,.63.62v17.5A0.64,0.64,0,0,1,1298.12,2510Z" transform="translate(-1280 -2485)"/>
</svg>
