<svg xmlns="http://www.w3.org/2000/svg" width="24" height="21" viewBox="0 0 24 21">
  <metadata><?xpacket begin="﻿" id="W5M0MpCehiHzreSzNTczkc9d"?>
<x:xmpmeta xmlns:x="adobe:ns:meta/" x:xmptk="Adobe XMP Core 5.6-c142 79.160924, 2017/07/13-01:06:39        ">
   <rdf:RDF xmlns:rdf="http://www.w3.org/1999/02/22-rdf-syntax-ns#">
      <rdf:Description rdf:about=""/>
   </rdf:RDF>
</x:xmpmeta>
                                                                                                    
                                                                                                    
                                                                                                    
                                                                                                    
                                                                                                    
                                                                                                    
                                                                                                    
                                                                                                    
                                                                                                    
                                                                                                    
                                                                                                    
                                                                                                    
                                                                                                    
                                                                                                    
                                                                                                    
                                                                                                    
                                                                                                    
                                                                                                    
                                                                                                    
                                                                                                    
                           
<?xpacket end="w"?></metadata>
<defs>
    <style>
      .cls-1 {
        fill: #d5d5d5;
        fill-rule: evenodd;
      }
    </style>
  </defs>
  <path id="cm" class="cls-1" d="M672.823,932h-11.9a11.155,11.155,0,0,1-7.8-3.208,10.3,10.3,0,0,1-3.124-7.35A10.653,10.653,0,0,1,660.653,911h0.059a10.65,10.65,0,0,1,10.712,10.354,10.052,10.052,0,0,1-1.339,5.22l3.571,3.5a1.059,1.059,0,0,1,.238,1.225A1.208,1.208,0,0,1,672.823,932Zm-12.111-19.541h-0.03a9.182,9.182,0,0,0-9.194,8.983,8.834,8.834,0,0,0,2.678,6.3,9.754,9.754,0,0,0,6.754,2.771h11.1l-3.808-3.733,0.327-.5a8.8,8.8,0,0,0,1.4-4.929A9.193,9.193,0,0,0,660.712,912.458Zm3.839,6.416h-7.558a0.729,0.729,0,1,1,0-1.458h7.558A0.729,0.729,0,1,1,664.551,918.874Zm0,3.384h-7.558a0.729,0.729,0,1,1,0-1.458h7.558A0.729,0.729,0,1,1,664.551,922.258Zm0,3.412h-7.558a0.729,0.729,0,1,1,0-1.458h7.558A0.729,0.729,0,1,1,664.551,925.67Z" transform="translate(-650 -911)"/>
</svg>
