<svg xmlns="http://www.w3.org/2000/svg" width="20" height="20" viewBox="0 0 20 20">
  <metadata><?xpacket begin="﻿" id="W5M0MpCehiHzreSzNTczkc9d"?>
<x:xmpmeta xmlns:x="adobe:ns:meta/" x:xmptk="Adobe XMP Core 5.6-c142 79.160924, 2017/07/13-01:06:39        ">
   <rdf:RDF xmlns:rdf="http://www.w3.org/1999/02/22-rdf-syntax-ns#">
      <rdf:Description rdf:about=""/>
   </rdf:RDF>
</x:xmpmeta>
                                                                                                    
                                                                                                    
                                                                                                    
                                                                                                    
                                                                                                    
                                                                                                    
                                                                                                    
                                                                                                    
                                                                                                    
                                                                                                    
                                                                                                    
                                                                                                    
                                                                                                    
                                                                                                    
                                                                                                    
                                                                                                    
                                                                                                    
                                                                                                    
                                                                                                    
                                                                                                    
                           
<?xpacket end="w"?></metadata>
<defs>
    <style>
      .cls-1 {
        fill: #4b64ff;
        fill-rule: evenodd;
      }
    </style>
  </defs>
  <path id="Cupon" class="cls-1" d="M1301.17,1635h-1.67a2.5,2.5,0,0,0-2.5,2.5v1.67a0.828,0.828,0,0,0,.83.83,0.837,0.837,0,0,0,.84-0.83v-1.67a0.828,0.828,0,0,1,.83-0.83h1.67a0.837,0.837,0,0,0,.83-0.84A0.828,0.828,0,0,0,1301.17,1635Zm-4.17,17.5a2.5,2.5,0,0,0,2.5,2.5h1.67a0.828,0.828,0,0,0,.83-0.83,0.837,0.837,0,0,0-.83-0.84h-1.67a0.828,0.828,0,0,1-.83-0.83v-1.67a0.837,0.837,0,0,0-.84-0.83,0.828,0.828,0,0,0-.83.83v1.67Zm19.17-2.5a0.837,0.837,0,0,0-.84.83v1.67a0.828,0.828,0,0,1-.83.83h-1.67a0.837,0.837,0,0,0-.83.84,0.828,0.828,0,0,0,.83.83h1.67a2.5,2.5,0,0,0,2.5-2.5v-1.67A0.828,0.828,0,0,0,1316.17,1650Zm-1.67-15h-1.67a0.828,0.828,0,0,0-.83.83,0.837,0.837,0,0,0,.83.84h1.67a0.828,0.828,0,0,1,.83.83v1.67a0.837,0.837,0,0,0,.84.83,0.828,0.828,0,0,0,.83-0.83v-1.67A2.5,2.5,0,0,0,1314.5,1635Zm-3.92,5.25-8.33,8.33a0.836,0.836,0,0,0-.1,1.17,0.849,0.849,0,0,0,1.18.1,0.9,0.9,0,0,0,.09-0.1l8.33-8.33A0.83,0.83,0,0,0,1310.58,1640.25Zm-9.41,1.42a2.5,2.5,0,1,0,2.5-2.5A2.5,2.5,0,0,0,1301.17,1641.67Zm3.33,0a0.828,0.828,0,0,1-.83.83,0.837,0.837,0,0,1-.84-0.83,0.845,0.845,0,0,1,.84-0.84A0.837,0.837,0,0,1,1304.5,1641.67Zm8.33,6.66a2.5,2.5,0,1,0-2.5,2.5,2.5,2.5,0,0,0,2.5-2.5h0Zm-3.33,0a0.828,0.828,0,0,1,.83-0.83,0.837,0.837,0,0,1,.84.83,0.845,0.845,0,0,1-.84.84A0.837,0.837,0,0,1,1309.5,1648.33Zm-0.83-13.33h-3.34a0.828,0.828,0,0,0-.83.83,0.837,0.837,0,0,0,.83.84h3.34a0.837,0.837,0,0,0,.83-0.84A0.828,0.828,0,0,0,1308.67,1635Zm-3.34,18.33a0.837,0.837,0,0,0-.83.84,0.828,0.828,0,0,0,.83.83h3.34a0.828,0.828,0,0,0,.83-0.83,0.837,0.837,0,0,0-.83-0.84h-3.34Zm10.84-10.83a0.837,0.837,0,0,0-.84.83v3.34a0.837,0.837,0,0,0,.84.83,0.828,0.828,0,0,0,.83-0.83v-3.34A0.828,0.828,0,0,0,1316.17,1642.5Zm-18.34,5a0.837,0.837,0,0,0,.84-0.83v-3.34a0.837,0.837,0,0,0-.84-0.83,0.828,0.828,0,0,0-.83.83v3.34A0.828,0.828,0,0,0,1297.83,1647.5Z" transform="translate(-1297 -1635)"/>
</svg>
