<svg xmlns="http://www.w3.org/2000/svg" width="66" height="41" viewBox="0 0 66 41">
  <metadata><?xpacket begin="﻿" id="W5M0MpCehiHzreSzNTczkc9d"?>
<x:xmpmeta xmlns:x="adobe:ns:meta/" x:xmptk="Adobe XMP Core 5.6-c142 79.160924, 2017/07/13-01:06:39        ">
   <rdf:RDF xmlns:rdf="http://www.w3.org/1999/02/22-rdf-syntax-ns#">
      <rdf:Description rdf:about=""/>
   </rdf:RDF>
</x:xmpmeta>
                                                                                                    
                                                                                                    
                                                                                                    
                                                                                                    
                                                                                                    
                                                                                                    
                                                                                                    
                                                                                                    
                                                                                                    
                                                                                                    
                                                                                                    
                                                                                                    
                                                                                                    
                                                                                                    
                                                                                                    
                                                                                                    
                                                                                                    
                                                                                                    
                                                                                                    
                                                                                                    
                           
<?xpacket end="w"?></metadata>
<defs>
    <style>
      .cls-delivery {
        fill: #4b64ff;
        fill-rule: evenodd;
      }
    </style>
  </defs>
  <path id="Delivery" class="cls-1" d="M632.38,1453.38l-1.71-6.71a1.028,1.028,0,0,0,.818-1v-1.08a4.3,4.3,0,0,0-4.34-4.26h-7.785v-2.23a2.119,2.119,0,0,0-2.135-2.1H577.545a2.119,2.119,0,0,0-2.136,2.1v18.4a1.034,1.034,0,0,0,2.067,0v-18.4a0.069,0.069,0,0,1,.069-0.07h39.682a0.069,0.069,0,0,1,.069.07v18.4a1.034,1.034,0,0,0,2.067,0v-1.15h12.2a3.379,3.379,0,0,1,3.212,2.3h-3.214a1.02,1.02,0,0,0-1.033,1.01v2.17a3.215,3.215,0,0,0,3.238,3.18h1.171v4.47h-2.7a6.578,6.578,0,0,0-12.371,0h-0.5v-7.65a1.034,1.034,0,0,0-2.067,0v7.64H595.855a6.582,6.582,0,0,0-12.37,0h-5.94a0.067,0.067,0,0,1-.069-0.06v-2.24h4.478a1.015,1.015,0,1,0,0-2.03h-9.921a1.015,1.015,0,1,0,0,2.03h3.376v2.24a2.117,2.117,0,0,0,2.136,2.09h5.582c0,0.03,0,.05,0,0.07a6.546,6.546,0,0,0,13.09,0c0-.02,0-0.04,0-0.07H619.5c0,0.03,0,.05,0,0.07a6.546,6.546,0,0,0,13.09,0c0-.02,0-0.04,0-0.07h3.377a1.021,1.021,0,0,0,1.034-1.01v-10.83A5.382,5.382,0,0,0,632.38,1453.38Zm-13.017-11.02h7.785a2.255,2.255,0,0,1,2.274,2.23v0.07H619.363v-2.3Zm0,10.96v-6.63h9.183l1.688,6.63H619.363Zm-29.693,21.65a4.4,4.4,0,1,1,4.478-4.4A4.442,4.442,0,0,1,589.67,1474.97Zm36.376,0a4.4,4.4,0,1,1,4.478-4.4A4.442,4.442,0,0,1,626.046,1474.97Zm8.887-12.99h-1.171a1.164,1.164,0,0,1-1.171-1.15v-1.15h2.342v2.3h0Zm-45.263,6.5a2.1,2.1,0,1,0,2.136,2.09A2.117,2.117,0,0,0,589.67,1468.48Zm36.376,0a2.1,2.1,0,1,0,2.136,2.09A2.117,2.117,0,0,0,626.046,1468.48Zm-12.125-4.33H598.488a1.01,1.01,0,1,0,0,2.02h15.433A1.01,1.01,0,1,0,613.921,1464.15Zm-26.455-4.34H574.238a1.015,1.015,0,1,0,0,2.03h13.228A1.015,1.015,0,1,0,587.466,1459.81Zm19.469-13.77a1.039,1.039,0,0,0-1.461,0l-9.19,9.02-4.781-4.69a1.039,1.039,0,0,0-1.461,0,1,1,0,0,0,0,1.43l5.511,5.42a1.065,1.065,0,0,0,1.461,0l9.921-9.75A1,1,0,0,0,606.935,1446.04Z" transform="translate(-571 -1436)"/>
</svg>
