<svg xmlns="http://www.w3.org/2000/svg" width="14.438" height="20.38" viewBox="0 0 14.438 20.38">
  <metadata><?xpacket begin="﻿" id="W5M0MpCehiHzreSzNTczkc9d"?>
<x:xmpmeta xmlns:x="adobe:ns:meta/" x:xmptk="Adobe XMP Core 5.6-c142 79.160924, 2017/07/13-01:06:39        ">
   <rdf:RDF xmlns:rdf="http://www.w3.org/1999/02/22-rdf-syntax-ns#">
      <rdf:Description rdf:about=""/>
   </rdf:RDF>
</x:xmpmeta>
                                                                                                    
                                                                                                    
                                                                                                    
                                                                                                    
                                                                                                    
                                                                                                    
                                                                                                    
                                                                                                    
                                                                                                    
                                                                                                    
                                                                                                    
                                                                                                    
                                                                                                    
                                                                                                    
                                                                                                    
                                                                                                    
                                                                                                    
                                                                                                    
                                                                                                    
                                                                                                    
                           
<?xpacket end="w"?></metadata>
<defs>
    <style>
      .cls-1 {
        fill: #d5d5d5;
        fill-rule: evenodd;
      }
    </style>
  </defs>
  <path id="facebook" class="cls-1" d="M178.948,8259h-6.28a3.655,3.655,0,0,0-3.768,3.82v4.45h-3.14a0.636,0.636,0,0,0-.628.64v3.82a0.628,0.628,0,0,0,.628.63h3.14v6.37a0.628,0.628,0,0,0,.628.63h4.4a0.628,0.628,0,0,0,.628-0.63v-6.37h3.14a0.625,0.625,0,0,0,.619-0.53l0.628-3.82a0.633,0.633,0,0,0-.14-0.51,0.605,0.605,0,0,0-.479-0.23h-3.768v-1.91a0.576,0.576,0,0,1,.633-0.63h3.763a0.636,0.636,0,0,0,.628-0.64v-4.45A0.63,0.63,0,0,0,178.948,8259Zm-0.628,4.45h-3.14a1.843,1.843,0,0,0-1.884,1.91v2.55a0.636,0.636,0,0,0,.628.64h3.654l-0.419,2.54h-3.235a0.636,0.636,0,0,0-.628.64v6.36h-3.14v-6.36a0.636,0.636,0,0,0-.628-0.64h-3.14v-2.54h3.14a0.636,0.636,0,0,0,.628-0.64v-5.09a2.433,2.433,0,0,1,2.512-2.55h5.652v3.18Z" transform="translate(-165.125 -8259)"/>
</svg>
