<svg xmlns="http://www.w3.org/2000/svg" width="24" height="20" viewBox="0 0 24 20">
  <metadata><?xpacket begin="﻿" id="W5M0MpCehiHzreSzNTczkc9d"?>
<x:xmpmeta xmlns:x="adobe:ns:meta/" x:xmptk="Adobe XMP Core 5.6-c142 79.160924, 2017/07/13-01:06:39        ">
   <rdf:RDF xmlns:rdf="http://www.w3.org/1999/02/22-rdf-syntax-ns#">
      <rdf:Description rdf:about=""/>
   </rdf:RDF>
</x:xmpmeta>
                                                                                                    
                                                                                                    
                                                                                                    
                                                                                                    
                                                                                                    
                                                                                                    
                                                                                                    
                                                                                                    
                                                                                                    
                                                                                                    
                                                                                                    
                                                                                                    
                                                                                                    
                                                                                                    
                                                                                                    
                                                                                                    
                                                                                                    
                                                                                                    
                                                                                                    
                                                                                                    
                           
<?xpacket end="w"?></metadata>
<defs>
    <style>
      .cls-1 {
        fill-rule: evenodd;
      }
    </style>
  </defs>
  <path id="heart" class="cls-1" d="M1285.99,80a0.752,0.752,0,0,1-.36-0.091c-0.02-.008-0.4-0.219-1.04-0.624-0.89-.531-1.63-1-2.18-1.381l-0.16-.107c-0.19-.131-0.47-0.319-0.81-0.559a5.593,5.593,0,0,1-.54-0.34,31.344,31.344,0,0,1-3.87-3.428,0.811,0.811,0,0,1-.16-0.245,15.319,15.319,0,0,1-1.49-2,9.6,9.6,0,0,1-1.16-2.648l-0.02-.082a0.049,0.049,0,0,0-.01-0.036,6.883,6.883,0,0,1-.19-1.613V66.793a6.019,6.019,0,0,1,.47-2.48,7.242,7.242,0,0,1,.43-0.88,6.3,6.3,0,0,1,3.32-2.877,7.085,7.085,0,0,1,2.77-.558h0.03a7.075,7.075,0,0,0,9.96,0,7.133,7.133,0,0,1,2.5.463q0.135,0.04.27,0.086a0.209,0.209,0,0,1,.05.019,6.867,6.867,0,0,1,4.2,6.193l-0.75.01,0.75,0.005v0.075a6.68,6.68,0,0,1-.19,1.6s-0.01.021-.01,0.024l-0.02.1a8.6,8.6,0,0,1-.52,1.459,5.653,5.653,0,0,1-.71,1.307l-0.05.087a0.412,0.412,0,0,1-.07.085c-0.16.24-.35,0.5-0.56,0.772a1.1,1.1,0,0,1-.1.171,26.994,26.994,0,0,1-6.02,5.339l-0.16.113c-0.56.381-1.29,0.849-2.19,1.39-0.63.4-1.02,0.607-1.03,0.615a0.757,0.757,0,0,1-.36.091h-0.02Zm-7.72-7.386a30.342,30.342,0,0,0,3.53,3.1,3.119,3.119,0,0,0,.39.245c0.03,0.017.06,0.036,0.09,0.056,0.35,0.246.63,0.438,0.82,0.569l0.17,0.113c0.52,0.359,1.25.823,2.12,1.341,0.24,0.158.45,0.284,0.61,0.378,0.15-.092.36-0.215,0.6-0.368,0.87-.528,1.61-0.992,2.13-1.35l0.17-.118a25.8,25.8,0,0,0,5.54-4.856,1.045,1.045,0,0,1,.1-0.167c0.27-.34.5-0.656,0.7-0.939l0.03-.04,0.01-.019c0-.008.01-0.016,0.01-0.024a4.657,4.657,0,0,0,.56-0.989,0.272,0.272,0,0,1,.03-0.084,7.289,7.289,0,0,0,.44-1.231l0.02-.069a0.117,0.117,0,0,1,.01-0.051,5.466,5.466,0,0,0,.15-1.263V66.778a5.394,5.394,0,0,0-3.27-4.853c-0.07-.022-0.13-0.043-0.2-0.062-0.02-.007-0.04-0.013-0.06-0.022a5.627,5.627,0,0,0-1.99-.373,5.523,5.523,0,0,0-4.27,2.037,0.755,0.755,0,0,1-.13.132c-0.05.035-.08,0.058-0.09,0.064a0.762,0.762,0,0,1-.95.015,0.316,0.316,0,0,1-.07-0.062,0.366,0.366,0,0,1-.07-0.072,5.5,5.5,0,0,0-4.36-2.114h-0.03a5.611,5.611,0,0,0-2.21.446l-0.06.019a4.832,4.832,0,0,0-2.54,2.233,5.764,5.764,0,0,0-.34.7,4.735,4.735,0,0,0-.36,1.891v0.07a5.427,5.427,0,0,0,.15,1.282c0,0.012.01,0.033,0.01,0.055l0.02,0.08a8.115,8.115,0,0,0,.98,2.226,13.8,13.8,0,0,0,1.48,1.938A0.843,0.843,0,0,1,1278.27,72.614Zm7.73-9.479h0Z" transform="translate(-1274 -60)"/>
</svg>
