<svg xmlns="http://www.w3.org/2000/svg" width="38" height="38" viewBox="0 0 38 38">
  <metadata><?xpacket begin="﻿" id="W5M0MpCehiHzreSzNTczkc9d"?>
<x:xmpmeta xmlns:x="adobe:ns:meta/" x:xmptk="Adobe XMP Core 5.6-c142 79.160924, 2017/07/13-01:06:39        ">
   <rdf:RDF xmlns:rdf="http://www.w3.org/1999/02/22-rdf-syntax-ns#">
      <rdf:Description rdf:about=""/>
   </rdf:RDF>
</x:xmpmeta>
                                                                                                    
                                                                                                    
                                                                                                    
                                                                                                    
                                                                                                    
                                                                                                    
                                                                                                    
                                                                                                    
                                                                                                    
                                                                                                    
                                                                                                    
                                                                                                    
                                                                                                    
                                                                                                    
                                                                                                    
                                                                                                    
                                                                                                    
                                                                                                    
                                                                                                    
                                                                                                    
                           
<?xpacket end="w"?></metadata>
<defs>
    <style>
      .cls-1 {
        fill: #4b64ff;
        fill-rule: evenodd;
      }
    </style>
  </defs>
  <path id="fax" class="cls-1" d="M1325.25,1207.12v-4.75a2.371,2.371,0,0,0-2.38-2.37h-14.25a2.369,2.369,0,0,0-2.37,2.37v4.75h-9.5a4.754,4.754,0,0,0-4.75,4.75v21.38a4.754,4.754,0,0,0,4.75,4.75h28.5a4.754,4.754,0,0,0,4.75-4.75v-21.38A4.754,4.754,0,0,0,1325.25,1207.12Zm-16.63-4.75h14.25v9.5h-14.25v-9.5Zm-11.87,33.25a2.384,2.384,0,0,1-2.38-2.37v-21.38a2.384,2.384,0,0,1,2.38-2.37h4.75v26.12h-4.75Zm30.87-2.37a2.369,2.369,0,0,1-2.37,2.37h-21.38V1209.5h2.38v2.37a2.371,2.371,0,0,0,2.37,2.38h14.25a2.373,2.373,0,0,0,2.38-2.38v-2.37a2.369,2.369,0,0,1,2.37,2.37v21.38ZM1311,1220.19a1.19,1.19,0,1,1-1.19-1.19A1.184,1.184,0,0,1,1311,1220.19Zm11.87,0a1.185,1.185,0,1,1-1.18-1.19A1.182,1.182,0,0,1,1322.87,1220.19Zm-5.93,0a1.19,1.19,0,1,1-1.19-1.19A1.184,1.184,0,0,1,1316.94,1220.19Zm-5.94,4.75a1.19,1.19,0,1,1-1.19-1.19A1.184,1.184,0,0,1,1311,1224.94Zm11.87,0a1.185,1.185,0,1,1-1.18-1.19A1.182,1.182,0,0,1,1322.87,1224.94Zm-5.93,0a1.19,1.19,0,1,1-1.19-1.19A1.184,1.184,0,0,1,1316.94,1224.94Zm-5.94,4.75a1.19,1.19,0,1,1-1.19-1.19A1.184,1.184,0,0,1,1311,1229.69Zm11.87,0a1.185,1.185,0,1,1-1.18-1.19A1.182,1.182,0,0,1,1322.87,1229.69Zm-5.93,0a1.19,1.19,0,1,1-1.19-1.19A1.184,1.184,0,0,1,1316.94,1229.69Z" transform="translate(-1292 -1200)"/>
</svg>
