<svg xmlns="http://www.w3.org/2000/svg" width="27" height="21" viewBox="0 0 27 21">
  <metadata><?xpacket begin="﻿" id="W5M0MpCehiHzreSzNTczkc9d"?>
<x:xmpmeta xmlns:x="adobe:ns:meta/" x:xmptk="Adobe XMP Core 5.6-c142 79.160924, 2017/07/13-01:06:39        ">
   <rdf:RDF xmlns:rdf="http://www.w3.org/1999/02/22-rdf-syntax-ns#">
      <rdf:Description rdf:about=""/>
   </rdf:RDF>
</x:xmpmeta>
                                                                                                    
                                                                                                    
                                                                                                    
                                                                                                    
                                                                                                    
                                                                                                    
                                                                                                    
                                                                                                    
                                                                                                    
                                                                                                    
                                                                                                    
                                                                                                    
                                                                                                    
                                                                                                    
                                                                                                    
                                                                                                    
                                                                                                    
                                                                                                    
                                                                                                    
                                                                                                    
                           
<?xpacket end="w"?></metadata>
<defs>
    <style>
      .cls-1 {
        fill: #4b64ff;
        fill-rule: evenodd;
      }
    </style>
  </defs>
  <path id="filter" class="cls-1" d="M1286.43,908.605a1.087,1.087,0,0,0,.92.1l3.66-1.27a0.9,0.9,0,0,0,.64-0.84v-8.017a1.441,1.441,0,0,1,.33-0.9l6.48-8.238a0.853,0.853,0,0,0-.21-1.26,1.063,1.063,0,0,0-.59-0.178h-17.67a0.953,0.953,0,0,0-.99.9,0.85,0.85,0,0,0,.19.522l6.48,8.238a1.383,1.383,0,0,1,.33.9v9.3A0.877,0.877,0,0,0,1286.43,908.605Zm-5.79-19.4h16.38l-6.1,7.755a2.574,2.574,0,0,0-.59,1.621v7.8l-3,1.041v-8.845a2.546,2.546,0,0,0-.59-1.609Zm19.11,8.445c-3.46,0-6.26,2.539-6.26,5.673a6.285,6.285,0,0,0,12.51.006v-0.018C1305.99,900.181,1303.19,897.652,1299.75,897.646Zm0,10.163a4.939,4.939,0,1,1,.02,0h-0.02Zm-2.58-5.087h5.15v1.2h-5.15v-1.2Z" transform="translate(-1279 -888)"/>
</svg>
