<svg xmlns="http://www.w3.org/2000/svg" width="24" height="18.999" viewBox="0 0 24 18.999">
  <metadata><?xpacket begin="﻿" id="W5M0MpCehiHzreSzNTczkc9d"?>
<x:xmpmeta xmlns:x="adobe:ns:meta/" x:xmptk="Adobe XMP Core 5.6-c142 79.160924, 2017/07/13-01:06:39        ">
   <rdf:RDF xmlns:rdf="http://www.w3.org/1999/02/22-rdf-syntax-ns#">
      <rdf:Description rdf:about=""/>
   </rdf:RDF>
</x:xmpmeta>
                                                                                                    
                                                                                                    
                                                                                                    
                                                                                                    
                                                                                                    
                                                                                                    
                                                                                                    
                                                                                                    
                                                                                                    
                                                                                                    
                                                                                                    
                                                                                                    
                                                                                                    
                                                                                                    
                                                                                                    
                                                                                                    
                                                                                                    
                                                                                                    
                                                                                                    
                                                                                                    
                           
<?xpacket end="w"?></metadata>
<defs>
    <style>
      .cls-1 {
        fill: #4b64ff;
        fill-rule: evenodd;
      }
    </style>
  </defs>
  <path id="folder" class="cls-1" d="M1301.81,993.124h-9.24a0.651,0.651,0,0,1-.5-0.247l-1.77-2.17a1.944,1.944,0,0,0-1.5-.681h-4.6a3.183,3.183,0,0,0-3.2,3.167v12.667a3.184,3.184,0,0,0,3.2,3.17h17.6a3.184,3.184,0,0,0,3.2-3.17v-9.569A3.181,3.181,0,0,0,1301.81,993.124Zm1.92,12.746a1.91,1.91,0,0,1-1.92,1.9h-17.6a1.91,1.91,0,0,1-1.92-1.9V993.193a1.911,1.911,0,0,1,1.92-1.9h4.59a0.636,0.636,0,0,1,.5.234l1.79,2.161a1.916,1.916,0,0,0,1.49.7h9.23a1.911,1.911,0,0,1,1.92,1.9v9.579Z" transform="translate(-1281 -990.031)"/>
</svg>
