<svg xmlns="http://www.w3.org/2000/svg" width="54" height="46" viewBox="0 0 54 46">
  <metadata><?xpacket begin="﻿" id="W5M0MpCehiHzreSzNTczkc9d"?>
<x:xmpmeta xmlns:x="adobe:ns:meta/" x:xmptk="Adobe XMP Core 5.6-c142 79.160924, 2017/07/13-01:06:39        ">
   <rdf:RDF xmlns:rdf="http://www.w3.org/1999/02/22-rdf-syntax-ns#">
      <rdf:Description rdf:about=""/>
   </rdf:RDF>
</x:xmpmeta>
                                                                                                    
                                                                                                    
                                                                                                    
                                                                                                    
                                                                                                    
                                                                                                    
                                                                                                    
                                                                                                    
                                                                                                    
                                                                                                    
                                                                                                    
                                                                                                    
                                                                                                    
                                                                                                    
                                                                                                    
                                                                                                    
                                                                                                    
                                                                                                    
                                                                                                    
                                                                                                    
                           
<?xpacket end="w"?></metadata>
<defs>
    <style>
      .cls-ga{
        fill: #4b64ff;
        fill-rule: evenodd;
      }
    </style>
  </defs>
  <path id="Guarantee" class="cls-1" d="M945.994,1446.84l-13.037-10.92H927.74a14.537,14.537,0,0,0-17.478,0h-5.011l-13.243,10.92v24.67h39.278l4.421,6.46a2.449,2.449,0,0,0,3.313.66l2.593-1.64a2.3,2.3,0,0,0,1.029-1.46,2.219,2.219,0,0,0-.344-1.73l-1.571-2.29h5.266v-24.67h0Zm-2.836-.41H933.132a13.248,13.248,0,0,0-3.723-9.02h2.97Zm-11.567.16a12.6,12.6,0,1,1-12.59-12.1A12.369,12.369,0,0,1,931.591,1446.59Zm-4.907,13.36-0.959-1.4a14.543,14.543,0,0,0,1.872-1.18l0.955,1.4Zm-7.683.24a15.411,15.411,0,0,0,2.163-.16v9.99h-4.321v-9.99A15.329,15.329,0,0,0,919,1460.19Zm-13.179-22.78h2.772a13.245,13.245,0,0,0-3.724,9.02h-10Zm-12.269,10.51h11.381a13.793,13.793,0,0,0,10.364,11.79v10.31H893.553v-22.1Zm29.156,22.1v-10.31a14.452,14.452,0,0,0,1.605-.52l1.256,1.83a2.425,2.425,0,0,0-.22.58,2.211,2.211,0,0,0,.344,1.73l4.576,6.69h-7.561Zm18.42,5.21a0.825,0.825,0,0,1-.365.52l-2.592,1.64a0.892,0.892,0,0,1-1.174-.23l-10.014-14.65a0.784,0.784,0,0,1-.122-0.61,0.807,0.807,0,0,1,.364-0.51l2.594-1.64a0.856,0.856,0,0,1,1.174.23l10.014,14.64A0.779,0.779,0,0,1,941.129,1475.23Zm-1.417-5.21-7.427-10.86a2.407,2.407,0,0,0-2-1.03,1.605,1.605,0,0,0-.31.02l-1.2-1.75a13.378,13.378,0,0,0,4.29-8.48h6.5v8.35h1.545v-8.35h3.333v22.1h-4.737ZM919,1457.22a10.633,10.633,0,1,0-11.047-10.63A10.858,10.858,0,0,0,919,1457.22Zm0-19.76a9.142,9.142,0,1,1-9.5,9.13A9.329,9.329,0,0,1,919,1437.46Zm6.332,4.89-1.093-1.05-8.156,7.84-2.323-2.24-1.092,1.06,3.415,3.28Zm-30.258,21.16h1.545v-12.04h5.407v-1.48h-6.952v13.52Zm0,1.44h1.545v3.62h-1.545v-3.62Zm44.5-7.32h1.545v6.67h-1.545v-6.67Z" transform="translate(-892 -1433)"/>
</svg>
