<svg xmlns="http://www.w3.org/2000/svg" width="18.03" height="14.75" viewBox="0 0 18.03 14.75">
  <metadata><?xpacket begin="﻿" id="W5M0MpCehiHzreSzNTczkc9d"?>
<x:xmpmeta xmlns:x="adobe:ns:meta/" x:xmptk="Adobe XMP Core 5.6-c142 79.160924, 2017/07/13-01:06:39        ">
   <rdf:RDF xmlns:rdf="http://www.w3.org/1999/02/22-rdf-syntax-ns#">
      <rdf:Description rdf:about=""/>
   </rdf:RDF>
</x:xmpmeta>
                                                                                                    
                                                                                                    
                                                                                                    
                                                                                                    
                                                                                                    
                                                                                                    
                                                                                                    
                                                                                                    
                                                                                                    
                                                                                                    
                                                                                                    
                                                                                                    
                                                                                                    
                                                                                                    
                                                                                                    
                                                                                                    
                                                                                                    
                                                                                                    
                                                                                                    
                                                                                                    
                           
<?xpacket end="w"?></metadata>
<defs>
    <style>
      .cls-1 {
        fill: #d5d5d5;
        fill-rule: evenodd;
      }
    </style>
  </defs>
  <path id="heart_" data-name="heart " class="cls-1" d="M1131.02,2478.87a0.681,0.681,0,0,1-.28-0.07c-0.01-.01-0.3-0.16-0.78-0.46-0.67-.39-1.22-0.74-1.64-1.02l-0.12-.08c-0.14-.09-0.35-0.23-0.6-0.41a3,3,0,0,1-.41-0.25,24.494,24.494,0,0,1-2.91-2.52,0.939,0.939,0,0,1-.12-0.18,11.471,11.471,0,0,1-1.12-1.47,6.776,6.776,0,0,1-.87-1.95l-0.02-.07v-0.02a4.912,4.912,0,0,1-.15-1.19v-0.04a4.554,4.554,0,0,1,.35-1.83,4.414,4.414,0,0,1,.33-0.65,4.707,4.707,0,0,1,2.49-2.12,5.47,5.47,0,0,1,2.08-.41h0.03a5.4,5.4,0,0,0,7.49,0,5.44,5.44,0,0,1,1.88.34,1.587,1.587,0,0,1,.2.07c0.01,0,.03.01,0.04,0.01a5.063,5.063,0,0,1,3.16,4.56l-0.57.01h0.57v0.06a4.773,4.773,0,0,1-.15,1.18v0.01l-0.02.08a6.036,6.036,0,0,1-.39,1.07,4.411,4.411,0,0,1-.53.97l-0.04.06c-0.02.02-.03,0.04-0.05,0.06-0.13.18-.27,0.37-0.43,0.57a0.826,0.826,0,0,1-.07.13,20.4,20.4,0,0,1-4.52,3.93l-0.13.08c-0.41.28-.97,0.63-1.65,1.03-0.47.29-.76,0.44-0.77,0.45a0.637,0.637,0,0,1-.27.07h-0.01Zm-5.81-5.45a22.942,22.942,0,0,0,2.65,2.29q0.165,0.105.3,0.18a0.435,0.435,0,0,0,.07.04c0.26,0.18.47,0.32,0.62,0.42l0.12,0.08c0.39,0.27.94,0.61,1.59,0.99,0.19,0.12.34,0.21,0.46,0.28q0.18-.1.45-0.27c0.66-.39,1.21-0.73,1.6-1l0.14-.08a19.411,19.411,0,0,0,4.16-3.58,0.834,0.834,0,0,1,.08-0.12c0.2-.25.37-0.49,0.52-0.69,0.01-.01.01-0.02,0.02-0.03l0.01-.02,0.01-.01a3.147,3.147,0,0,0,.42-0.73,0.145,0.145,0,0,1,.02-0.07,4.284,4.284,0,0,0,.33-0.9l0.01-.05a0.06,0.06,0,0,0,.01-0.04,3.709,3.709,0,0,0,.12-0.93v-0.05a3.986,3.986,0,0,0-2.46-3.58,0.833,0.833,0,0,0-.15-0.04c-0.02-.01-0.03-0.01-0.05-0.02a4.223,4.223,0,0,0-1.49-.27,4.148,4.148,0,0,0-3.21,1.5,0.812,0.812,0,0,1-.1.09,0.308,0.308,0,0,1-.07.05,0.571,0.571,0,0,1-.71.01c-0.02-.01-0.04-0.03-0.06-0.04a0.265,0.265,0,0,0-.05-0.06,4.139,4.139,0,0,0-3.27-1.56l-0.03.01a4.267,4.267,0,0,0-1.66.32,0.147,0.147,0,0,0-.04.02,3.953,3.953,0,0,0-2.17,2.16,3.315,3.315,0,0,0-.27,1.39v0.05a4.257,4.257,0,0,0,.11.95,0.1,0.1,0,0,1,.01.04l0.02,0.06a5.784,5.784,0,0,0,.73,1.63,9.726,9.726,0,0,0,1.11,1.43A0.653,0.653,0,0,1,1125.21,2473.42Zm5.81-6.98h0Z" transform="translate(-1122 -2464.13)"/>
</svg>
