<svg xmlns="http://www.w3.org/2000/svg" width="21.313" height="21.16" viewBox="0 0 21.313 21.16">
  <metadata><?xpacket begin="﻿" id="W5M0MpCehiHzreSzNTczkc9d"?>
<x:xmpmeta xmlns:x="adobe:ns:meta/" x:xmptk="Adobe XMP Core 5.6-c142 79.160924, 2017/07/13-01:06:39        ">
   <rdf:RDF xmlns:rdf="http://www.w3.org/1999/02/22-rdf-syntax-ns#">
      <rdf:Description rdf:about=""/>
   </rdf:RDF>
</x:xmpmeta>
                                                                                                    
                                                                                                    
                                                                                                    
                                                                                                    
                                                                                                    
                                                                                                    
                                                                                                    
                                                                                                    
                                                                                                    
                                                                                                    
                                                                                                    
                                                                                                    
                                                                                                    
                                                                                                    
                                                                                                    
                                                                                                    
                                                                                                    
                                                                                                    
                                                                                                    
                                                                                                    
                           
<?xpacket end="w"?></metadata>
<defs>
    <style>
      .cls-1 {
        fill: #d5d5d5;
        fill-rule: evenodd;
      }
    </style>
  </defs>
  <path id="instagram" class="cls-1" d="M248.427,8258.84H238.94a5.8,5.8,0,0,0-5.828,5.77v9.41a5.805,5.805,0,0,0,5.828,5.78h9.487a5.806,5.806,0,0,0,5.829-5.78v-9.41A5.8,5.8,0,0,0,248.427,8258.84Zm4.12,15.16a4.127,4.127,0,0,1-4.144,4.11h-9.439a4.127,4.127,0,0,1-4.144-4.11v-9.36a4.127,4.127,0,0,1,4.144-4.11H248.4a4.127,4.127,0,0,1,4.144,4.11V8274Zm-4.12,5.9H238.94a5.909,5.909,0,0,1-5.922-5.88v-9.41a5.907,5.907,0,0,1,5.922-5.87h9.487a5.908,5.908,0,0,1,5.923,5.87v9.41A5.91,5.91,0,0,1,248.427,8279.9Zm-9.487-20.97a5.716,5.716,0,0,0-5.735,5.68v9.41a5.718,5.718,0,0,0,5.735,5.69h9.487a5.718,5.718,0,0,0,5.735-5.69v-9.41a5.716,5.716,0,0,0-5.735-5.68H238.94Zm9.463,19.27h-9.439a4.221,4.221,0,0,1-4.238-4.2v-9.36a4.221,4.221,0,0,1,4.238-4.2H248.4a4.221,4.221,0,0,1,4.238,4.2V8274A4.221,4.221,0,0,1,248.4,8278.2Zm-9.439-17.58a4.038,4.038,0,0,0-4.05,4.02V8274a4.044,4.044,0,0,0,4.05,4.02H248.4a4.044,4.044,0,0,0,4.05-4.02v-9.36a4.038,4.038,0,0,0-4.05-4.02h-9.439Zm4.72,3.17a5.525,5.525,0,1,0,5.572,5.53A5.553,5.553,0,0,0,243.684,8263.79Zm0,9.13a3.605,3.605,0,1,1,3.634-3.6A3.616,3.616,0,0,1,243.684,8272.92Zm0,2.02a5.62,5.62,0,1,1,5.666-5.62A5.648,5.648,0,0,1,243.684,8274.94Zm0-11.05a5.43,5.43,0,1,0,5.478,5.43A5.457,5.457,0,0,0,243.684,8263.89Zm0,9.13a3.7,3.7,0,1,1,3.728-3.7A3.718,3.718,0,0,1,243.684,8273.02Zm0-7.21a3.51,3.51,0,1,0,3.54,3.51A3.526,3.526,0,0,0,243.684,8265.81Zm7.011-2.2a1.25,1.25,0,1,1-1.25-1.24A1.248,1.248,0,0,1,250.7,8263.61Zm-1.25,1.33a1.33,1.33,0,1,1,1.344-1.33A1.34,1.34,0,0,1,249.445,8264.94Zm0-2.48a1.145,1.145,0,1,0,1.157,1.15A1.157,1.157,0,0,0,249.445,8262.46Z" transform="translate(-233.031 -8258.75)"/>
</svg>
