<svg xmlns="http://www.w3.org/2000/svg" width="39" height="36" viewBox="0 0 39 36">
  <metadata><?xpacket begin="﻿" id="W5M0MpCehiHzreSzNTczkc9d"?>
<x:xmpmeta xmlns:x="adobe:ns:meta/" x:xmptk="Adobe XMP Core 5.6-c142 79.160924, 2017/07/13-01:06:39        ">
   <rdf:RDF xmlns:rdf="http://www.w3.org/1999/02/22-rdf-syntax-ns#">
      <rdf:Description rdf:about=""/>
   </rdf:RDF>
</x:xmpmeta>
                                                                                                    
                                                                                                    
                                                                                                    
                                                                                                    
                                                                                                    
                                                                                                    
                                                                                                    
                                                                                                    
                                                                                                    
                                                                                                    
                                                                                                    
                                                                                                    
                                                                                                    
                                                                                                    
                                                                                                    
                                                                                                    
                                                                                                    
                                                                                                    
                                                                                                    
                                                                                                    
                           
<?xpacket end="w"?></metadata>
<defs>
    <style>
      .cls-1 {
        fill: #4b64ff;
        fill-rule: evenodd;
      }
    </style>
  </defs>
  <path id="mail" class="cls-1" d="M1329.97,1312.59a0.433,0.433,0,0,0-.04-0.19,0.974,0.974,0,0,0-.39-0.55l-5.58-3.83v-4.11a0.994,0.994,0,0,0-1-.99h-6.42l-5.46-3.75a1.01,1.01,0,0,0-1.14-.01l-5.5,3.76h-6.39a0.988,0.988,0,0,0-1,.99v4.06l-5.61,3.83a0.963,0.963,0,0,0-.43.8v0.01l0.03,21.39a0.951,0.951,0,0,0,.29.7,0.99,0.99,0,0,0,.71.29h0l36.96-.05a0.994,0.994,0,0,0,1-.99Zm-6.01-2.17,3.19,2.19-3.19,2.19v-4.38Zm-13.46-9.24,2.54,1.74h-5.09Zm-11.46,3.71h22.92v11.29l-7.69,5.28-3.14-2.4a0.01,0.01,0,0,0-.01-0.01,1,1,0,0,0-1.21.01l-3.16,2.42-7.71-5.26v-11.33Zm-1.99,5.48v4.49l-3.29-2.25Zm-4.04,4.13,12.08,8.25-12.06,9.24Zm1.95,18.51,15.56-11.93,15.5,11.89Zm20.96-10.28,12.05-8.28,0.03,17.54Zm1.34-13.89h-13.52a0.985,0.985,0,1,0,0,1.97h13.52A0.985,0.985,0,1,0,1317.26,1308.84Zm0,5.13h-13.52a0.985,0.985,0,1,0,0,1.97h13.52A0.985,0.985,0,1,0,1317.26,1313.97Z" transform="translate(-1291 -1299)"/>
</svg>
