<svg xmlns="http://www.w3.org/2000/svg" width="42" height="42" viewBox="0 0 42 42">
  <metadata><?xpacket begin="﻿" id="W5M0MpCehiHzreSzNTczkc9d"?>
<x:xmpmeta xmlns:x="adobe:ns:meta/" x:xmptk="Adobe XMP Core 5.6-c142 79.160924, 2017/07/13-01:06:39        ">
   <rdf:RDF xmlns:rdf="http://www.w3.org/1999/02/22-rdf-syntax-ns#">
      <rdf:Description rdf:about=""/>
   </rdf:RDF>
</x:xmpmeta>
                                                                                                    
                                                                                                    
                                                                                                    
                                                                                                    
                                                                                                    
                                                                                                    
                                                                                                    
                                                                                                    
                                                                                                    
                                                                                                    
                                                                                                    
                                                                                                    
                                                                                                    
                                                                                                    
                                                                                                    
                                                                                                    
                                                                                                    
                                                                                                    
                                                                                                    
                                                                                                    
                           
<?xpacket end="w"?></metadata>
<defs>
    <style>
      .cls-1 {
        fill: #4b64ff;
        fill-rule: evenodd;
      }
    </style>
  </defs>
  <path id="phone" class="cls-1" d="M1328.88,1138.15l-5.2-5.38-0.01-.01a3.694,3.694,0,0,0-5.22,0l-2.38,2.37a2.794,2.794,0,0,1-3.95,0h0l-8.25-8.06a2.777,2.777,0,0,1,0-3.95l2.37-2.38a3.694,3.694,0,0,0,0-5.22l-5.22-5.22a3.694,3.694,0,0,0-5.22,0l-1.74,1.74-0.16.16a13.314,13.314,0,0,0,0,18.83l14.26,14.07a13.308,13.308,0,0,0,18.81.02c0.03-.03,1.87-1.73,1.9-1.76A3.691,3.691,0,0,0,1328.88,1138.15Zm-31.34-26.11a1.231,1.231,0,0,1,1.74,0l5.22,5.22a1.231,1.231,0,0,1,0,1.74l-0.87.87-6.96-6.96Zm12.36,31.32-14.26-14.07a10.845,10.845,0,0,1-.68-14.6l6.94,6.93a5.261,5.261,0,0,0,.23,7.19l8.25,8.06a5.261,5.261,0,0,0,7.19.23l6.93,6.94A10.832,10.832,0,0,1,1309.9,1143.36Zm17.25-1.75-0.83.76-7-7,0.87-.87a1.228,1.228,0,0,1,1.73-.01l5.21,5.39A1.238,1.238,0,0,1,1327.15,1141.61ZM1311.08,1107a1.23,1.23,0,0,0,0,2.46,18.479,18.479,0,0,1,18.46,18.46,1.23,1.23,0,0,0,2.46,0A20.912,20.912,0,0,0,1311.08,1107Zm0,4.92a1.23,1.23,0,0,0,0,2.46,13.55,13.55,0,0,1,13.54,13.54,1.23,1.23,0,0,0,2.46,0A16.021,16.021,0,0,0,1311.08,1111.92Zm0,4.92a1.23,1.23,0,0,0,0,2.46,8.634,8.634,0,0,1,8.62,8.62,1.23,1.23,0,0,0,2.46,0A11.092,11.092,0,0,0,1311.08,1116.84Zm0,4.93a1.23,1.23,0,0,0,0,2.46,3.687,3.687,0,0,1,3.69,3.69,1.23,1.23,0,0,0,2.46,0A6.152,6.152,0,0,0,1311.08,1121.77Z" transform="translate(-1290 -1107)"/>
</svg>
