<svg xmlns="http://www.w3.org/2000/svg" width="24" height="18" viewBox="0 0 24 18">
  <metadata><?xpacket begin="﻿" id="W5M0MpCehiHzreSzNTczkc9d"?>
<x:xmpmeta xmlns:x="adobe:ns:meta/" x:xmptk="Adobe XMP Core 5.6-c142 79.160924, 2017/07/13-01:06:39        ">
   <rdf:RDF xmlns:rdf="http://www.w3.org/1999/02/22-rdf-syntax-ns#">
      <rdf:Description rdf:about=""/>
   </rdf:RDF>
</x:xmpmeta>
                                                                                                    
                                                                                                    
                                                                                                    
                                                                                                    
                                                                                                    
                                                                                                    
                                                                                                    
                                                                                                    
                                                                                                    
                                                                                                    
                                                                                                    
                                                                                                    
                                                                                                    
                                                                                                    
                                                                                                    
                                                                                                    
                                                                                                    
                                                                                                    
                                                                                                    
                                                                                                    
                           
<?xpacket end="w"?></metadata>
<defs>
    <style>
      .cls-1 {
        fill: #4b64ff;
        fill-rule: evenodd;
      }
    </style>
  </defs>
  <path class="cls-1" d="M1303.71,1605.41h-21.39a1.273,1.273,0,0,0-1.32,1.25v11.08a1.282,1.282,0,0,0,1.32,1.26h21.37a1.279,1.279,0,0,0,1.31-1.26v-11.08A1.247,1.247,0,0,0,1303.71,1605.41Zm-21.39,12.58a0.247,0.247,0,0,1-.27-0.25v-11.08a0.247,0.247,0,0,1,.27-0.25h6.97a6.621,6.621,0,0,0,0,11.58h-6.97Zm10.7-11.58a5.8,5.8,0,1,1-6.06,5.79A5.943,5.943,0,0,1,1293.02,1606.41Zm10.96,11.33a0.247,0.247,0,0,1-.27.25h-6.97a6.621,6.621,0,0,0,0-11.58h6.97a0.247,0.247,0,0,1,.27.25v11.08Zm-12.33-3.98-0.21-.28-0.65.8,0.13,0.15a2.645,2.645,0,0,0,1.73.98v0.78h0.92v-0.78a1.82,1.82,0,0,0,1.67-1.83,1.945,1.945,0,0,0-1.67-1.85v-1.61a1.784,1.784,0,0,1,.76.53l0.21,0.27,0.68-.77-0.13-.18a2.422,2.422,0,0,0-1.5-.85v-0.8h-0.92v0.8a1.761,1.761,0,0,0-1.62,1.73,1.8,1.8,0,0,0,1.62,1.7v1.86A1.929,1.929,0,0,1,1291.65,1613.76Zm1.92-.91a0.785,0.785,0,0,1,.63.76,0.826,0.826,0,0,1-.63.8v-1.56Zm-1.53-2.03a0.768,0.768,0,0,1,.61-0.72v1.33A0.664,0.664,0,0,1,1292.04,1610.82Zm-7.68-7.74h17.31v1h-17.31v-1Zm2.1-2.08h13.11v1h-13.11v-1Zm-2.15,6.24a1.256,1.256,0,1,1-1.31,1.25A1.284,1.284,0,0,1,1284.31,1607.24Zm17.41,7.27a1.256,1.256,0,1,1,0,2.51A1.256,1.256,0,1,1,1301.72,1614.51Z" transform="translate(-1281 -1601)"/>
</svg>
