<svg xmlns="http://www.w3.org/2000/svg" width="11.28" height="11.06" viewBox="0 0 11.28 11.06">
  <metadata><?xpacket begin="﻿" id="W5M0MpCehiHzreSzNTczkc9d"?>
<x:xmpmeta xmlns:x="adobe:ns:meta/" x:xmptk="Adobe XMP Core 5.6-c142 79.160924, 2017/07/13-01:06:39        ">
   <rdf:RDF xmlns:rdf="http://www.w3.org/1999/02/22-rdf-syntax-ns#">
      <rdf:Description rdf:about=""/>
   </rdf:RDF>
</x:xmpmeta>
                                                                                                    
                                                                                                    
                                                                                                    
                                                                                                    
                                                                                                    
                                                                                                    
                                                                                                    
                                                                                                    
                                                                                                    
                                                                                                    
                                                                                                    
                                                                                                    
                                                                                                    
                                                                                                    
                                                                                                    
                                                                                                    
                                                                                                    
                                                                                                    
                                                                                                    
                                                                                                    
                           
<?xpacket end="w"?></metadata>
<defs>
    <style>
      .cls-1 {
        fill: #eceff4;
        fill-rule: evenodd;
      }
    </style>
  </defs>
  <path id="Star_copy_4" data-name="Star copy 4" class="cls-1" d="M1220.66,2355.75a0.662,0.662,0,0,0-.64,0l-3.29,2.21c-0.17.12-.27,0.05-0.21-0.15l0.99-3.44a0.71,0.71,0,0,0-.17-0.64l-2.55-2.55c-0.15-.15-0.1-0.29.11-0.31l3.38-.31a0.692,0.692,0,0,0,.54-0.39l1.36-3.07c0.09-.19.23-0.19,0.31,0l1.36,3.07a0.708,0.708,0,0,0,.54.39l3.38,0.31c0.21,0.02.26,0.16,0.11,0.31l-2.55,2.55a0.739,0.739,0,0,0-.17.64l1,3.44c0.05,0.2-.04.27-0.22,0.15Z" transform="translate(-1214.69 -2346.97)"/>
</svg>
