<svg xmlns="http://www.w3.org/2000/svg" width="50" height="45" viewBox="0 0 50 45">
  <metadata><?xpacket begin="﻿" id="W5M0MpCehiHzreSzNTczkc9d"?>
<x:xmpmeta xmlns:x="adobe:ns:meta/" x:xmptk="Adobe XMP Core 5.6-c142 79.160924, 2017/07/13-01:06:39        ">
   <rdf:RDF xmlns:rdf="http://www.w3.org/1999/02/22-rdf-syntax-ns#">
      <rdf:Description rdf:about=""/>
   </rdf:RDF>
</x:xmpmeta>
                                                                                                    
                                                                                                    
                                                                                                    
                                                                                                    
                                                                                                    
                                                                                                    
                                                                                                    
                                                                                                    
                                                                                                    
                                                                                                    
                                                                                                    
                                                                                                    
                                                                                                    
                                                                                                    
                                                                                                    
                                                                                                    
                                                                                                    
                                                                                                    
                                                                                                    
                                                                                                    
                           
<?xpacket end="w"?></metadata>
<defs>
    <style>
      .cls-re {
        fill: #4b64ff;
        fill-rule: evenodd;
      }
    </style>
  </defs>
  <path id="Return" class="cls-1" d="M1229.94,1433h-0.01a0.292,0.292,0,0,0-.09.02,0.83,0.83,0,0,0-.21.06l-19.93,8.55a0.9,0.9,0,0,0-.63.46v0.02a0.866,0.866,0,0,0-.09.59v25.88a0.109,0.109,0,0,1,.01.05,0.894,0.894,0,0,0,.53.66l20.11,8.63a0.819,0.819,0,0,0,.3.07h0.16a1.015,1.015,0,0,0,.25-0.06l10.94-4.7a9.487,9.487,0,1,0,9.72-14.13v-16.34a0.927,0.927,0,0,0-.73-1.12l-19.93-8.55a0.568,0.568,0,0,0-.22-0.07h-0.18V1433Zm0.05,1.8,4.22,1.82-17.91,7.68a0.219,0.219,0,0,1-.05.03l-4.23-1.82,17.97-7.71h0Zm6.42,2.76,5.12,2.2-18.24,7.83a0.867,0.867,0,0,0-.52.91v9.33l-1.87-2.82a0.856,0.856,0,0,0-1.1-.29l-2.2,1.1v-10.19l18.81-8.07h0Zm7.31,3.14,4.23,1.81-17.96,7.71-4.23-1.81,17.91-7.69c0.02-.01.03-0.01,0.05-0.02h0Zm-33.02,3.13,5.17,2.22v11.17a0.871,0.871,0,0,0,.87.87,0.849,0.849,0,0,0,.38-0.09l2.77-1.39,2.98,4.48a0.864,0.864,0,0,0,.85.47c0.04-.01.07-0.01,0.1-0.02h0.02c0.02-.01.04-0.01,0.06-0.02a0.973,0.973,0,0,0,.23-0.11,0.879,0.879,0,0,0,.36-0.82v-10.84l4.64,1.99v24.08l-18.43-7.91v-24.08h0Zm38.57,0v15.13a9.506,9.506,0,0,0-9.01,7.37l-2.13.91-5.02,2.16a0.879,0.879,0,0,0-.46,1.14,0.858,0.858,0,0,0,1.13.45l5.03-2.16,1.2-.51v0.15a9.466,9.466,0,0,0,.55,3.17l-9.71,4.18v-24.08l18.42-7.91h0Zm0.22,16.85a7.79,7.79,0,1,1-7.76,7.79A7.767,7.767,0,0,1,1249.49,1460.68Zm-11.05,3.04a0.87,0.87,0,0,0-.31.07l-5.02,2.16a0.868,0.868,0,0,0-.52,1.11,0.857,0.857,0,0,0,1.1.52c0.03-.01.06-0.03,0.09-0.04l5.03-2.16A0.861,0.861,0,0,0,1238.44,1463.72Zm11.12,4.71c-0.25-.25-0.5-0.5-0.74-0.75-0.4-.39-0.79-0.79-1.18-1.19l-0.27-.27v0.65l0.74-.74c0.39-.39.79-0.78,1.18-1.17,0.09-.1.18-0.19,0.27-0.28a0.447,0.447,0,0,0,0-.65,0.418,0.418,0,0,0-.33-0.14,0.518,0.518,0,0,0-.33.14c-0.25.24-.49,0.49-0.74,0.74-0.39.39-.79,0.78-1.18,1.18a3.437,3.437,0,0,0-.27.27,0.459,0.459,0,0,0,0,.65c0.25,0.25.5,0.5,0.74,0.76,0.4,0.39.79,0.79,1.18,1.19l0.27,0.27a0.471,0.471,0,0,0,.33.14,0.453,0.453,0,0,0,.33-0.14,0.5,0.5,0,0,0,.14-0.33,0.518,0.518,0,0,0-.14-0.33h0Zm-2.52-1.42h2.48c0.3,0,.6.01,0.91,0.01,0.16,0,.33-0.01.5,0,0.06,0.01.13,0.01,0.19,0.02-0.04-.01-0.08-0.01-0.12-0.02a3.011,3.011,0,0,1,.71.2,1.173,1.173,0,0,0-.11-0.05,3.135,3.135,0,0,1,.64.37,0.865,0.865,0,0,0-.1-0.07,2.844,2.844,0,0,1,.52.52c-0.02-.03-0.05-0.06-0.07-0.09a3.063,3.063,0,0,1,.37.63,1.173,1.173,0,0,1-.05-0.11,2.959,2.959,0,0,1,.2.72,0.507,0.507,0,0,1-.02-0.13,3.22,3.22,0,0,1,0,.76,0.585,0.585,0,0,1,.02-0.13,2.959,2.959,0,0,1-.2.72,1.173,1.173,0,0,1,.05-0.11,2.819,2.819,0,0,1-.37.63c0.02-.03.05-0.06,0.07-0.09a2.563,2.563,0,0,1-.52.52,0.865,0.865,0,0,0,.1-0.07,3.135,3.135,0,0,1-.64.37,1.173,1.173,0,0,0,.11-0.05,3.011,3.011,0,0,1-.71.2c0.04-.01.08-0.01,0.12-0.02a5.008,5.008,0,0,1-.67.03h-3.42c-0.18,0-.37-0.01-0.56,0h-0.01a0.482,0.482,0,0,0-.32.13,0.518,0.518,0,0,0-.14.33,0.479,0.479,0,0,0,.46.47h4.29a3.34,3.34,0,0,0,.7-0.08,3.406,3.406,0,0,0,.68-0.23,3.883,3.883,0,0,0,.52-0.3,2.909,2.909,0,0,0,.52-0.47,3.409,3.409,0,0,0,.72-1.23,3.33,3.33,0,0,0-.33-2.72,3.621,3.621,0,0,0-.97-1.02,3.779,3.779,0,0,0-.63-0.33,2.56,2.56,0,0,0-.6-0.17,3.406,3.406,0,0,0-.71-0.06h-0.54c-0.57,0-1.14-.01-1.71-0.01h-1.36a0.448,0.448,0,0,0-.32.14,0.5,0.5,0,0,0-.14.33,0.518,0.518,0,0,0,.14.33,0.482,0.482,0,0,0,.32.13h0Z" transform="translate(-1208.97 -1433)"/>
</svg>
