<svg xmlns="http://www.w3.org/2000/svg" width="23" height="22" viewBox="0 0 23 22">
  <metadata><?xpacket begin="﻿" id="W5M0MpCehiHzreSzNTczkc9d"?>
<x:xmpmeta xmlns:x="adobe:ns:meta/" x:xmptk="Adobe XMP Core 5.6-c142 79.160924, 2017/07/13-01:06:39        ">
   <rdf:RDF xmlns:rdf="http://www.w3.org/1999/02/22-rdf-syntax-ns#">
      <rdf:Description rdf:about=""/>
   </rdf:RDF>
</x:xmpmeta>
                                                                                                    
                                                                                                    
                                                                                                    
                                                                                                    
                                                                                                    
                                                                                                    
                                                                                                    
                                                                                                    
                                                                                                    
                                                                                                    
                                                                                                    
                                                                                                    
                                                                                                    
                                                                                                    
                                                                                                    
                                                                                                    
                                                                                                    
                                                                                                    
                                                                                                    
                                                                                                    
                           
<?xpacket end="w"?></metadata>
<defs>
    <style>
      .cls-1 {
        fill: #4b64ff;
        fill-rule: evenodd;
      }
    </style>
  </defs>
  <path id="sort" class="cls-1" d="M1305,771.989v-6.336a2.045,2.045,0,0,0-2.05-2.014h-6.45a2.038,2.038,0,0,0-2.05,2.014v6.336A2.038,2.038,0,0,0,1296.5,774h6.45A2.045,2.045,0,0,0,1305,771.989Zm-9.33,0v-6.336a0.8,0.8,0,0,1,.8-0.786h6.45a0.8,0.8,0,0,1,.8.786v6.336a0.8,0.8,0,0,1-.8.786h-6.42A0.809,0.809,0,0,1,1295.67,771.989Zm4.48-19.82,3.72,3.66a0.587,0.587,0,0,1,0,.86,0.607,0.607,0,0,1-.87,0l-2.65-2.6v7.761a0.618,0.618,0,0,1-.63.614,0.609,0.609,0,0,1-.62-0.614v-7.761l-2.65,2.6a0.622,0.622,0,0,1-.45.171,0.6,0.6,0,0,1-.45-1.031l3.72-3.66a0.626,0.626,0,0,1,.45-0.171A0.612,0.612,0,0,1,1300.15,752.169Zm-16.1-.171a2.038,2.038,0,0,0-2.05,2.014v6.336a2.038,2.038,0,0,0,2.05,2.014h6.45a2.045,2.045,0,0,0,2.05-2.014v-6.336A2.044,2.044,0,0,0,1290.5,752h-6.45Zm7.27,2.014v6.336a0.8,0.8,0,0,1-.8.786h-6.47a0.78,0.78,0,0,1-.8-0.786v-6.336a0.8,0.8,0,0,1,.8-0.786h6.45A0.8,0.8,0,0,1,1291.32,754.012Zm-4.47,19.819-3.73-3.659a0.587,0.587,0,0,1,0-.86,0.619,0.619,0,0,1,.88,0l2.65,2.6V764.13a0.609,0.609,0,0,1,.62-0.614,0.618,0.618,0,0,1,.63.614v7.761l2.65-2.6a0.6,0.6,0,0,1,.87,0,0.586,0.586,0,0,1,0,.859l-3.7,3.684a0.593,0.593,0,0,1-.45.172A0.607,0.607,0,0,1,1286.85,773.831Z" transform="translate(-1282 -752)"/>
</svg>
