<svg xmlns="http://www.w3.org/2000/svg" width="47" height="48" viewBox="0 0 47 48">
  <metadata><?xpacket begin="﻿" id="W5M0MpCehiHzreSzNTczkc9d"?>
<x:xmpmeta xmlns:x="adobe:ns:meta/" x:xmptk="Adobe XMP Core 5.6-c142 79.160924, 2017/07/13-01:06:39        ">
   <rdf:RDF xmlns:rdf="http://www.w3.org/1999/02/22-rdf-syntax-ns#">
      <rdf:Description rdf:about=""/>
   </rdf:RDF>
</x:xmpmeta>
                                                                                                    
                                                                                                    
                                                                                                    
                                                                                                    
                                                                                                    
                                                                                                    
                                                                                                    
                                                                                                    
                                                                                                    
                                                                                                    
                                                                                                    
                                                                                                    
                                                                                                    
                                                                                                    
                                                                                                    
                                                                                                    
                                                                                                    
                                                                                                    
                                                                                                    
                                                                                                    
                           
<?xpacket end="w"?></metadata>
<defs>
    <style>
      .cls-support {
        fill: #4b64ff;
        fill-rule: evenodd;
      }
    </style>
  </defs>
  <path id="Support" class="cls-1" d="M306.1,1470.22a2.76,2.76,0,0,0-1.967-1.7l-6.588-4.29a3.871,3.871,0,0,0-3.048-.7,6.1,6.1,0,0,0-3.933,3.1,1.846,1.846,0,0,1-1.376.89c-0.885,0-2.753-.39-6.391-4.19l-0.2-.2c-0.492-.4-3.048-3.59-4.621-5.48,0-.1-1.868-2.9.59-4.89,3.048-2.6,2.261-5.39,1.475-6.49l-4.327-6.49c-0.786-1.09-2.556-2.69-4.326-1.69a11.754,11.754,0,0,0-5.8,6.58c-1.082,3.2-.688,6.89,1.278,10.88,5.7,11.68,21.927,22.25,22.615,22.65l0.1,0.1a20.816,20.816,0,0,0,7.669,1.7,8.4,8.4,0,0,0,7.276-3.39C306.3,1473.91,306.787,1471.72,306.1,1470.22Zm-3.245,5.19c-3.146,4.99-11.7,1.5-12.487,1.1-1.082-.8-16.519-11.08-21.927-21.86-1.671-3.49-2.064-6.68-1.18-9.38a10.28,10.28,0,0,1,4.818-5.49l0.1-.1c0.393-.3,1.376.7,1.671,1.1l4.326,6.49c0.1,0.1,1.279,1.79-1.081,3.79-3.048,2.49-1.967,5.99-.885,7.58,0.492,0.6,4.13,5.19,4.818,5.79l0.2,0.2c3.245,3.49,5.8,4.99,7.965,4.79a3.625,3.625,0,0,0,2.851-1.8,4.326,4.326,0,0,1,2.557-2.19,2.437,2.437,0,0,1,1.671.4l6.784,4.39,0.2,0.1h0.2a1.094,1.094,0,0,1,.786.6C304.427,1471.32,304.624,1472.61,302.854,1475.41ZM312,1451.76A19.783,19.783,0,0,0,292.235,1432a19.407,19.407,0,0,0-13.471,5.39l1.377,1.49a17.829,17.829,0,0,1,29.989,12.98,17.645,17.645,0,0,1-5.015,12.37l1.377,1.4A19.032,19.032,0,0,0,312,1451.76Zm-20.645-18.6,1.966-.02,0.051,4.68-1.966.03Zm14.908,17.8,4.817-.05,0.021,1.99-4.817.06Zm-15.206,1,1.966-2a6.606,6.606,0,0,0,1.18-1.49,2.694,2.694,0,0,0,.295-1.2,2.214,2.214,0,0,0-.786-1.8,2.349,2.349,0,0,0-1.77-.7,2.78,2.78,0,0,0-1.672.4,3.374,3.374,0,0,0-1.18,1.2l1.082,0.7a1.922,1.922,0,0,1,1.672-1.1,1.251,1.251,0,0,1,.983.4,1.231,1.231,0,0,1,.393.9,2.139,2.139,0,0,1-.393,1,15.579,15.579,0,0,0-1.18,1.29l-2.458,2.6v1.19h5.6v-1.39h-3.736Zm9.537-2v-1.5h-1.278v1.6h-1.966l2.949-4.99h-1.474l-3.048,4.99v1.2h3.539v2.09h1.278v-2.09h0.984v-1.3h-0.984Z" transform="translate(-265 -1432)"/>
</svg>
