<svg xmlns="http://www.w3.org/2000/svg" width="22.594" height="19.09" viewBox="0 0 22.594 19.09">
  <metadata><?xpacket begin="﻿" id="W5M0MpCehiHzreSzNTczkc9d"?>
<x:xmpmeta xmlns:x="adobe:ns:meta/" x:xmptk="Adobe XMP Core 5.6-c142 79.160924, 2017/07/13-01:06:39        ">
   <rdf:RDF xmlns:rdf="http://www.w3.org/1999/02/22-rdf-syntax-ns#">
      <rdf:Description rdf:about=""/>
   </rdf:RDF>
</x:xmpmeta>
                                                                                                    
                                                                                                    
                                                                                                    
                                                                                                    
                                                                                                    
                                                                                                    
                                                                                                    
                                                                                                    
                                                                                                    
                                                                                                    
                                                                                                    
                                                                                                    
                                                                                                    
                                                                                                    
                                                                                                    
                                                                                                    
                                                                                                    
                                                                                                    
                                                                                                    
                                                                                                    
                           
<?xpacket end="w"?></metadata>
<defs>
    <style>
      .cls-1 {
        fill: #d5d5d5;
        fill-rule: evenodd;
      }
    </style>
  </defs>
  <path id="twitter" class="cls-1" d="M219.608,8262.19c-1.422.06-1.391,0.06-1.552,0.07l0.842-2.48s-2.629,1-3.295,1.18a5.137,5.137,0,0,0-6.212-.52,4.5,4.5,0,0,0-2.068,4.57,11.437,11.437,0,0,1-7.435-4.32l-0.623-.78-0.467.89a5.471,5.471,0,0,0-.55,3.59,5.245,5.245,0,0,0,.484,1.4l-0.535-.21-0.063.92a5.162,5.162,0,0,0,1.439,3.73l-0.277-.05,0.338,1.06a5.1,5.1,0,0,0,2.559,3.06c-1.193.52-2.158,0.86-3.743,1.4l-1.45.49,1.339,0.75a13.783,13.783,0,0,0,4.1,1.54c3.964,0.64,8.427.12,11.431-2.67,2.53-2.35,3.361-5.7,3.188-9.18a2.21,2.21,0,0,1,.394-1.41C218.012,8264.44,219.605,8262.19,219.608,8262.19Zm-3.216,2.21a3.616,3.616,0,0,0-.656,2.3c0.174,3.51-.752,6.24-2.753,8.09-2.336,2.18-6.105,3.03-10.34,2.34a9.677,9.677,0,0,1-2.215-.68,34.037,34.037,0,0,0,4.012-1.7l2.314-1.13-2.554-.17a3.592,3.592,0,0,1-2.869-1.68,4.572,4.572,0,0,0,.972-0.17l2.437-.7-2.457-.62a3.678,3.678,0,0,1-2.235-1.6,4.084,4.084,0,0,1-.484-1.11,5.916,5.916,0,0,0,1,.17l2.274,0.23-1.8-1.45a3.983,3.983,0,0,1-1.437-4.12,12.943,12.943,0,0,0,9.287,4.12,8.445,8.445,0,0,0-.136-1.16,3.184,3.184,0,0,1,1.337-3.76,3.868,3.868,0,0,1,4.667.4,1.143,1.143,0,0,0,1.088.3,7.451,7.451,0,0,0,.9-0.28l-0.571,1.69h0.729C216.756,8263.9,216.591,8264.12,216.392,8264.4Z" transform="translate(-197 -8259.63)"/>
</svg>
