<svg xmlns="http://www.w3.org/2000/svg" width="19" height="21" viewBox="0 0 19 21">
  <metadata><?xpacket begin="﻿" id="W5M0MpCehiHzreSzNTczkc9d"?>
<x:xmpmeta xmlns:x="adobe:ns:meta/" x:xmptk="Adobe XMP Core 5.6-c142 79.160924, 2017/07/13-01:06:39        ">
   <rdf:RDF xmlns:rdf="http://www.w3.org/1999/02/22-rdf-syntax-ns#">
      <rdf:Description rdf:about=""/>
   </rdf:RDF>
</x:xmpmeta>
                                                                                                    
                                                                                                    
                                                                                                    
                                                                                                    
                                                                                                    
                                                                                                    
                                                                                                    
                                                                                                    
                                                                                                    
                                                                                                    
                                                                                                    
                                                                                                    
                                                                                                    
                                                                                                    
                                                                                                    
                                                                                                    
                                                                                                    
                                                                                                    
                                                                                                    
                                                                                                    
                           
<?xpacket end="w"?></metadata>
<defs>
    <style>
      .cls-user {
        fill-rule: evenodd;
      }
    </style>
  </defs>
  <path id="user" class="cls-1" d="M1257,79.231a0.789,0.789,0,0,1-.81.769,0.8,0.8,0,0,1-.82-0.769c0-3.626-2.84-5.378-7.87-5.378s-7.87,1.752-7.87,5.378a0.8,0.8,0,0,1-.82.769,0.789,0.789,0,0,1-.81-0.769c0-4.645,3.67-6.914,9.5-6.914S1257,74.586,1257,79.231Zm-9.5-7.939c-3,0-5.16-3.138-5.16-6.4,0-3.159,2.13-5.89,5.16-5.89s5.16,2.731,5.16,5.89C1252.66,68.154,1250.5,71.292,1247.5,71.292Zm0-1.537c1.92,0,3.53-2.346,3.53-4.866,0-2.395-1.53-4.354-3.53-4.354s-3.53,1.959-3.53,4.354C1243.97,67.409,1245.58,69.755,1247.5,69.755Z" transform="translate(-1238 -59)"/>
</svg>
