<svg xmlns="http://www.w3.org/2000/svg" width="109.78" height="20.75" viewBox="0 0 109.78 20.75">
  <metadata><?xpacket begin="﻿" id="W5M0MpCehiHzreSzNTczkc9d"?>
<x:xmpmeta xmlns:x="adobe:ns:meta/" x:xmptk="Adobe XMP Core 5.6-c142 79.160924, 2017/07/13-01:06:39        ">
   <rdf:RDF xmlns:rdf="http://www.w3.org/1999/02/22-rdf-syntax-ns#">
      <rdf:Description rdf:about=""/>
   </rdf:RDF>
</x:xmpmeta>
                                                                                                    
                                                                                                    
                                                                                                    
                                                                                                    
                                                                                                    
                                                                                                    
                                                                                                    
                                                                                                    
                                                                                                    
                                                                                                    
                                                                                                    
                                                                                                    
                                                                                                    
                                                                                                    
                                                                                                    
                                                                                                    
                                                                                                    
                                                                                                    
                                                                                                    
                                                                                                    
                           
<?xpacket end="w"?></metadata>
<defs>
    <style>
      .cls-1 {
        fill: #4b64ff;
        fill-rule: evenodd;
      }
    </style>
  </defs>
  <path id="ver" class="cls-1" d="M1163.25,3699.82H1174v1.62a3.171,3.171,0,0,0-.97-0.15h-6.18v7.6h6.02a4.718,4.718,0,0,0,1.13-.12v1.62a5.43,5.43,0,0,0-1.11-.09h-6.04v7.86h6a5.121,5.121,0,0,0,1.15-.14v1.75h-10.73a3.575,3.575,0,0,0,.13-0.95v-18.04a2.541,2.541,0,0,0-.15-0.96h0Zm-2.49,5.17-3.1-.02a3.739,3.739,0,0,0-3.36-3.56c-4.71-.4-6.04,4.52-5.92,8.11,0.12,3.47.7,8.8,5.57,8.8,2.04,0,4-1.99,3.94-3.67l2.87-.02c-0.21,3.46-4.39,5.47-6.38,5.54-6.82.22-9.67-4.09-9.81-10.24-0.13-5.58,2.27-10.53,9-10.53,5.77,0.08,6.88,3.32,7.19,5.59h0Zm-48.44,12.51,2.06-1.63c1.07,1.68,1.95,2.44,4.08,2.44,2.16,0,3.98-1.24,3.98-3.45a3.115,3.115,0,0,0-1.39-2.64,19.939,19.939,0,0,0-3.14-1.61c-2.49-1.13-4.91-2.61-4.91-5.57,0-3.74,3.35-5.39,6.88-5.51a8.19,8.19,0,0,1,5.73,2.25l-2.09,1.53a4.412,4.412,0,0,0-3.84-2.2c-2.67,0-4.78,2.94-2.57,4.96a13.48,13.48,0,0,0,3.45,1.92c2.78,1.24,5.16,2.72,5.16,6a5.715,5.715,0,0,1-.93,3.15q-1.86,2.925-6.21,2.92c-3.33,0-3.99-.72-6.26-2.56h0Zm-29.31-17.68h10.74v1.62a3.171,3.171,0,0,0-.97-0.15h-6.18v7.6h6.01a4.805,4.805,0,0,0,1.14-.12v1.62a5.43,5.43,0,0,0-1.11-.09h-6.04v7.86h6a5.188,5.188,0,0,0,1.15-.14v1.75h-10.73a4.047,4.047,0,0,0,.12-0.95v-18.04a3.084,3.084,0,0,0-.13-0.96h0Zm-18.79,0h3.91V3700a2.165,2.165,0,0,0,.15.67l5.5,15.74,5.66-15.81a2.768,2.768,0,0,0,.13-0.78h1.9a4.849,4.849,0,0,0-.43.85l-6.45,18.28a4.712,4.712,0,0,0-.17.82h-3.2a5.216,5.216,0,0,0-.21-0.82l-6.33-18.14c-0.07-.17-0.22-0.51-0.45-0.99h-0.01Zm41.49,10.4a5.145,5.145,0,0,0,4.52-5.01c0-3.49-3.07-5.39-6.52-5.39h-6.29a3.307,3.307,0,0,1,.14.95v18.04a2.865,2.865,0,0,1-.14.96h3.75a3.325,3.325,0,0,1-.14-0.96v-8.29l1.2,0.12,6.28,9.13h3.77l-6.57-9.55h0Zm-0.65-1.52a4.328,4.328,0,0,1-2.43.68h-1.61v-8.11h1.44a4.31,4.31,0,0,1,2.85.86,4.066,4.066,0,0,1,1.41,3.24,3.811,3.811,0,0,1-1.66,3.33h0Zm38.89,10.24-7-18.46a2.443,2.443,0,0,1-.14-0.66h-3.02a1.965,1.965,0,0,1-.14.73l-6.78,18.39a3.813,3.813,0,0,1-.42.83h1.95a2.166,2.166,0,0,1,.12-0.83l2.01-5.42h7.72l1.99,5.42a2.561,2.561,0,0,1,.15.83h4.05a4.1,4.1,0,0,1-.49-0.83h0Zm-12.89-6.89,3.26-9.01,3.36,9.01h-6.62Z" transform="translate(-1064.22 -3699.41)"/>
</svg>
