<svg xmlns="http://www.w3.org/2000/svg" width="21.38" height="13.66" viewBox="0 0 21.38 13.66">
  <metadata><?xpacket begin="﻿" id="W5M0MpCehiHzreSzNTczkc9d"?>
<x:xmpmeta xmlns:x="adobe:ns:meta/" x:xmptk="Adobe XMP Core 5.6-c142 79.160924, 2017/07/13-01:06:39        ">
   <rdf:RDF xmlns:rdf="http://www.w3.org/1999/02/22-rdf-syntax-ns#">
      <rdf:Description rdf:about=""/>
   </rdf:RDF>
</x:xmpmeta>
                                                                                                    
                                                                                                    
                                                                                                    
                                                                                                    
                                                                                                    
                                                                                                    
                                                                                                    
                                                                                                    
                                                                                                    
                                                                                                    
                                                                                                    
                                                                                                    
                                                                                                    
                                                                                                    
                                                                                                    
                                                                                                    
                                                                                                    
                                                                                                    
                                                                                                    
                                                                                                    
                           
<?xpacket end="w"?></metadata>
<defs>
    <style>
      .cls-1 {
        fill: #d5d5d5;
        fill-rule: evenodd;
      }
    </style>
  </defs>
  <path id="view" class="cls-1" d="M1201.47,2467.53h0a2.355,2.355,0,0,0-2.4-2.3h-1.3a1.361,1.361,0,0,0-.21.02,2.289,2.289,0,0,1,.1.61c0.01,0.23.01,0.46,0.02,0.69,0.03,0,.06-0.01.09-0.01h1.3a1.008,1.008,0,0,1,1.03.99v3.41a4.97,4.97,0,0,0-3.53-1.44,4.91,4.91,0,0,0-4.37,2.6l-0.11.11a2.476,2.476,0,0,0-2.62,0c-0.04-.04-0.09-0.08-0.13-0.12a4.894,4.894,0,0,0-4.36-2.6,4.978,4.978,0,0,0-3.53,1.45v-3.42a1.006,1.006,0,0,1,1.03-.98h1.31a0.2,0.2,0,0,1,.08.01c0.01-.23.01-0.46,0.02-0.7a2.684,2.684,0,0,1,.1-0.6,1.355,1.355,0,0,0-.2-0.02h-1.31a2.345,2.345,0,0,0-2.39,2.29v4.86a2.473,2.473,0,0,0,.08.6,2.2,2.2,0,0,0-.08.58v0.57c0,0.02-.01.04-0.01,0.06s0.01,0.04.01,0.06v0.22h0.01a4.9,4.9,0,0,0,9.77-.28,4.193,4.193,0,0,0-.03-0.5,0.292,0.292,0,0,0,.09.02v-0.15l0.13-.13a1.065,1.065,0,0,1,1.45,0l0.12,0.12v0.14c0.03-.01.06-0.01,0.08-0.02-0.01.17-.03,0.35-0.03,0.52a4.9,4.9,0,0,0,9.79,0,5.27,5.27,0,0,0-.04-0.56,0.147,0.147,0,0,0,.04.02v-0.09a2.2,2.2,0,0,0-.09-0.58,1.981,1.981,0,0,0,.09-0.6v-4.85Zm-16.5,10.21a3.553,3.553,0,1,1,3.7-3.55A3.621,3.621,0,0,1,1184.97,2477.74Zm11.6,0a3.553,3.553,0,1,1,3.7-3.55A3.621,3.621,0,0,1,1196.57,2477.74Z" transform="translate(-1180.09 -2465.22)"/>
</svg>
