<svg xmlns="http://www.w3.org/2000/svg" width="21" height="21" viewBox="0 0 21 21">
  <metadata><?xpacket begin="﻿" id="W5M0MpCehiHzreSzNTczkc9d"?>
<x:xmpmeta xmlns:x="adobe:ns:meta/" x:xmptk="Adobe XMP Core 5.6-c142 79.160924, 2017/07/13-01:06:39        ">
   <rdf:RDF xmlns:rdf="http://www.w3.org/1999/02/22-rdf-syntax-ns#">
      <rdf:Description rdf:about=""/>
   </rdf:RDF>
</x:xmpmeta>
                                                                                                    
                                                                                                    
                                                                                                    
                                                                                                    
                                                                                                    
                                                                                                    
                                                                                                    
                                                                                                    
                                                                                                    
                                                                                                    
                                                                                                    
                                                                                                    
                                                                                                    
                                                                                                    
                                                                                                    
                                                                                                    
                                                                                                    
                                                                                                    
                                                                                                    
                                                                                                    
                           
<?xpacket end="w"?></metadata>
<defs>
    <style>
      .cls-1 {
        fill: #d5d5d5;
        fill-rule: evenodd;
      }
    </style>
  </defs>
  <path id="whatsapp" class="cls-1" d="M315.691,8258.64a10.493,10.493,0,0,0-9.4,15.15l-1.069,4.27a0.7,0.7,0,0,0,.939.82l3.29-1.31a10.375,10.375,0,0,0,6.245,2.06A10.495,10.495,0,1,0,315.691,8258.64Zm0,19.59a8.962,8.962,0,0,1-5.695-2.01,0.707,0.707,0,0,0-.439-0.15,0.779,0.779,0,0,0-.26.05l-2.391.96,0.8-3.21a0.681,0.681,0,0,0-.06-0.49A9.1,9.1,0,1,1,315.691,8278.23Zm4.489-8.63a2.1,2.1,0,0,0-2.969,0l-0.5.49-1.979-1.98,0.494-.49a2.1,2.1,0,0,0,0-2.97l-0.989-.99a2.1,2.1,0,0,0-2.969,0l-0.989.99c-0.121.12-2.913,3.02,1.979,7.91,2.262,2.27,4.1,2.89,5.431,2.89a3.584,3.584,0,0,0,2.485-.91l0.989-.99a2.1,2.1,0,0,0,0-2.97Zm0,2.96-0.991.99c-0.02.02-2.024,1.94-5.937-1.98-3.852-3.85-2.05-5.86-1.978-5.93l0.989-.99a0.688,0.688,0,0,1,.99,0l0.989,0.99a0.7,0.7,0,0,1,0,.99l-0.989.99a0.7,0.7,0,0,0,0,.99l2.968,2.97a0.706,0.706,0,0,0,.99,0l0.989-.99a0.688,0.688,0,0,1,.99,0l0.99,0.99A0.69,0.69,0,0,1,320.18,8272.56Z" transform="translate(-305.188 -8258.63)"/>
</svg>
