<svg xmlns="http://www.w3.org/2000/svg" width="93.129" height="19.97" viewBox="0 0 93.129 19.97">
  <metadata><?xpacket begin="﻿" id="W5M0MpCehiHzreSzNTczkc9d"?>
<x:xmpmeta xmlns:x="adobe:ns:meta/" x:xmptk="Adobe XMP Core 5.6-c142 79.160924, 2017/07/13-01:06:39        ">
   <rdf:RDF xmlns:rdf="http://www.w3.org/1999/02/22-rdf-syntax-ns#">
      <rdf:Description rdf:about=""/>
   </rdf:RDF>
</x:xmpmeta>
                                                                                                    
                                                                                                    
                                                                                                    
                                                                                                    
                                                                                                    
                                                                                                    
                                                                                                    
                                                                                                    
                                                                                                    
                                                                                                    
                                                                                                    
                                                                                                    
                                                                                                    
                                                                                                    
                                                                                                    
                                                                                                    
                                                                                                    
                                                                                                    
                                                                                                    
                                                                                                    
                           
<?xpacket end="w"?></metadata>
<defs>
    <style>
      .cls-1 {
        fill: #4b64ff;
        fill-rule: evenodd;
      }
    </style>
  </defs>
  <path id="zar" class="cls-1" d="M969.884,3716.48a2.5,2.5,0,0,1-2.144,2.44H957.334l13.089-19.24h-17.5v3.19h0.9a2.3,2.3,0,0,1,1.868-2.44h8.993l-13.166,19.24H970.5v-3.19h-0.619Zm15.255,2.57c1.27,0,2.5-.49,2.226-0.94h0l-2.433-4.44h-8.563l-2.231,4.46h0c-0.235.5,0.744,0.92,1.663,0.92h0v0.62h-4.939v-0.62h0a2.656,2.656,0,0,0,2.326-.92h0l9.28-18.45,10.128,18.43h0c0.323,0.49,1.273.94,2.829,0.94h0l0,0.62H985.139v-0.62h0Zm-8.4-6.1,3.705-7.48,4.136,7.48h-7.841Zm19.863-12.5c1.507,0,2.749.36,2.749,0.79,0,3.43-.008,16.86,0,16.86,0,0.46-1.228.97-2.734,0.97h0l0,0.6h10.063v-0.56h0c-1.49,0-2.7-.55-2.7-1.01h0v-17.82h2.9a4.892,4.892,0,0,1,5.06,4.56c0,2.43-2.27,4.4-5.06,4.4h-2.01s6.8,9.48,6.81,9.48a2.943,2.943,0,0,1,.4.95h7.34v-0.56h0a3.169,3.169,0,0,1-2.56-1.01h0l-6.55-7.87h0c3.14-.19,5.58-2.53,5.58-5.31,0-2.9-2.71-5.24-6.05-5.24H996.6v0.77h0Zm37.776,18.62c1.27,0,2.51-.51,2.23-0.96h0l-2.44-4.44h-8.56l-2.23,4.46h0c-0.23.5,0.74,0.98,1.66,0.98h0v0.56h-4.94v-0.6h0a2.66,2.66,0,0,0,2.33-.94h0l9.28-18.45,10.13,18.43h0c0.32,0.49,1.27.98,2.83,0.98h0l-0.01.58h-10.28v-0.6h0Zm-8.4-6.12,3.71-7.48,4.14,7.48h-7.85Z" transform="translate(-951.531 -3699.69)"/>
</svg>
